<svg width="24" height="24" viewBox="0 0 24 24" fill="none" xmlns="http://www.w3.org/2000/svg">
<circle cx="12" cy="12" r="12" fill="white"/>
<path d="M17.7842 10.3871L19.9962 11.9962L21.6091 9.64746" stroke="black" stroke-linecap="round" stroke-linejoin="round"/>
<path d="M12.5 12C12.5 12.2761 12.2761 12.5 12 12.5C11.7239 12.5 11.5 12.2761 11.5 12C11.5 11.7239 11.7239 11.5 12 11.5C12.2761 11.5 12.5 11.7239 12.5 12Z" stroke="black"/>
<path d="M10 8L11.5977 11.0859M7 15L11.1336 12.5141" stroke="black" stroke-linecap="round" stroke-linejoin="round"/>
<path d="M20 12C20 7.58172 16.4183 4 12 4C7.58172 4 4 7.58172 4 12C4 16.4183 7.58172 20 12 20C15.1289 20 17.8375 18.2034 19.1523 15.5859" stroke="black" stroke-linecap="round"/>
</svg>
