<svg width="80" height="80" viewBox="0 0 80 80" fill="none" xmlns="http://www.w3.org/2000/svg">
<path d="M46.0945 6.18182C46.0945 4.95917 45.7319 3.76398 45.0527 2.74739C44.3734 1.73079 43.4079 0.938453 42.2783 0.470566C41.1488 0.00267848 39.9058 -0.119742 38.7066 0.118785C37.5075 0.357311 36.406 0.946073 35.5415 1.81062C34.6769 2.67516 34.0881 3.77665 33.8496 4.97581C33.6111 6.17496 33.7335 7.41792 34.2014 8.5475C34.6693 9.67708 35.4616 10.6425 36.4782 11.3218C37.4948 12.0011 38.69 12.3636 39.9127 12.3636C41.5522 12.3636 43.1245 11.7123 44.2839 10.553C45.4432 9.39371 46.0945 7.82134 46.0945 6.18182Z" fill="#1D1D1B"/>
<path d="M39.9127 80C38.69 80 37.4948 79.6374 36.4782 78.9582C35.4616 78.2789 34.6693 77.3134 34.2014 76.1838C33.7335 75.0543 33.6111 73.8113 33.8496 72.6122C34.0881 71.413 34.6769 70.3115 35.5415 69.447C36.406 68.5824 37.5075 67.9937 38.7066 67.7551C39.9058 67.5166 41.1488 67.639 42.2783 68.1069C43.4079 68.5748 44.3734 69.3671 45.0527 70.3837C45.7319 71.4003 46.0945 72.5955 46.0945 73.8182C46.0945 75.4577 45.4432 77.0301 44.2839 78.1894C43.1245 79.3487 41.5522 80 39.9127 80Z" fill="#B2B2B2"/>
<path d="M73.8182 46.0073C72.5955 46.0073 71.4003 45.6448 70.3837 44.9655C69.3671 44.2862 68.5748 43.3208 68.1069 42.1912C67.639 41.0616 67.5166 39.8186 67.7551 38.6195C67.9937 37.4203 68.5824 36.3188 69.447 35.4543C70.3115 34.5897 71.413 34.001 72.6122 33.7625C73.8113 33.5239 75.0543 33.6464 76.1838 34.1142C77.3134 34.5821 78.2789 35.3745 78.9582 36.3911C79.6374 37.4077 80 38.6028 80 39.8255C80 41.465 79.3487 43.0374 78.1894 44.1967C77.0301 45.356 75.4577 46.0073 73.8182 46.0073Z" fill="#70706F"/>
<path d="M6.18182 46.0073C4.95917 46.0073 3.76398 45.6448 2.74739 44.9655C1.73079 44.2862 0.938453 43.3208 0.470566 42.1912C0.00267848 41.0616 -0.119742 39.8186 0.118785 38.6195C0.357311 37.4203 0.946073 36.3188 1.81062 35.4543C2.67516 34.5897 3.77665 34.001 4.97581 33.7625C6.17496 33.5239 7.41792 33.6464 8.5475 34.1142C9.67708 34.5821 10.6425 35.3745 11.3218 36.3911C12.0011 37.4077 12.3636 38.6028 12.3636 39.8255C12.3636 41.465 11.7123 43.0374 10.553 44.1967C9.39371 45.356 7.82134 46.0073 6.18182 46.0073Z" fill="#D0D0D0"/>
<path d="M63.8255 22.1819C62.3912 22.1868 60.9997 21.694 59.8882 20.7875C58.7767 19.8811 58.014 18.6171 57.7303 17.2111C57.4466 15.8052 57.6595 14.3444 58.3325 13.0779C59.0056 11.8113 60.0971 10.8175 61.4211 10.2658C62.745 9.71419 64.2193 9.63891 65.5926 10.0528C66.9658 10.4668 68.1529 11.3443 68.9515 12.5357C69.75 13.7271 70.1105 15.1586 69.9715 16.5861C69.8325 18.0137 69.2025 19.3487 68.1891 20.3637C67.0329 21.5239 65.4635 22.1779 63.8255 22.1819Z" fill="#4A4A49"/>
<path d="M16 70.0073C14.5658 70.0122 13.1742 69.5194 12.0627 68.613C10.9512 67.7065 10.1886 66.4425 9.9049 65.0366C9.62121 63.6307 9.83403 62.1698 10.5071 60.9033C11.1801 59.6367 12.2717 58.6429 13.5956 58.0913C14.9196 57.5396 16.3939 57.4644 17.7671 57.8783C19.1404 58.2922 20.3275 59.1697 21.126 60.3611C21.9246 61.5525 22.2851 62.9841 22.146 64.4116C22.007 65.8391 21.3771 67.1742 20.3637 68.1891C19.2075 69.3494 17.638 70.0033 16 70.0073Z" fill="#C6C6C6"/>
<path d="M64.1018 69.9055C62.6712 69.9056 61.2848 69.4096 60.179 68.5018C59.0732 67.5941 58.3165 66.331 58.0378 64.9277C57.7592 63.5245 57.9759 62.068 58.651 60.8067C59.326 59.5453 60.4177 58.5571 61.7399 58.0107C63.062 57.4642 64.5328 57.3932 65.9014 57.8098C67.2701 58.2264 68.4519 59.1048 69.2453 60.2953C70.0387 61.4858 70.3947 62.9146 70.2525 64.3381C70.1103 65.7617 69.4787 67.0919 68.4655 68.1019C67.8922 68.6744 67.2118 69.1284 66.4631 69.4378C65.7144 69.7473 64.912 69.9062 64.1018 69.9055Z" fill="#939292"/>
<path d="M16.2763 22.0799C14.8456 22.0801 13.4592 21.584 12.3534 20.6763C11.2476 19.7686 10.4909 18.5054 10.2123 17.1021C9.93362 15.6989 10.1503 14.2424 10.8254 12.9811C11.5005 11.7197 12.5922 10.7316 13.9143 10.1851C15.2365 9.63861 16.7072 9.56762 18.0759 9.98423C19.4445 10.4008 20.6263 11.2793 21.4197 12.4697C22.2131 13.6602 22.5691 15.089 22.4269 16.5126C22.2847 17.9361 21.6532 19.2663 20.6399 20.2763C20.0667 20.8488 19.3863 21.3028 18.6375 21.6123C17.8888 21.9217 17.0864 22.0807 16.2763 22.0799Z" fill="#DADADA"/>
<path d="M40.0001 33.1927C39.7124 33.1927 39.4312 33.1074 39.192 32.9476C38.9528 32.7877 38.7663 32.5606 38.6562 32.2948C38.5461 32.029 38.5173 31.7365 38.5735 31.4544C38.6296 31.1722 38.7681 30.913 38.9715 30.7096C39.175 30.5062 39.4341 30.3677 39.7163 30.3115C39.9984 30.2554 40.2909 30.2842 40.5567 30.3943C40.8225 30.5044 41.0496 30.6908 41.2095 30.93C41.3693 31.1692 41.4546 31.4505 41.4546 31.7381C41.4546 32.1239 41.3014 32.4939 41.0286 32.7667C40.7558 33.0394 40.3858 33.1927 40.0001 33.1927ZM50.7928 34.9091C50.4291 32.3345 48.3346 31.2145 45.7019 31.2145C44.4829 31.1938 43.2764 31.463 42.1819 32C42.2674 31.4288 42.1291 30.8467 41.7957 30.3751C41.4624 29.9035 40.9597 29.5789 40.3928 29.4691V28.0145C40.3928 27.8949 40.3453 27.7802 40.2607 27.6957C40.1762 27.6111 40.0615 27.5636 39.9419 27.5636C39.8223 27.5636 39.7076 27.6111 39.623 27.6957C39.5385 27.7802 39.491 27.8949 39.491 28.0145V29.4691C38.9472 29.6072 38.4746 29.9431 38.1652 30.4111C37.8559 30.8791 37.7322 31.4456 37.8182 32C36.7515 31.4514 35.5704 31.1624 34.371 31.1563C31.7382 31.1563 29.6437 32.2763 29.2655 34.8509C28.7165 34.8405 28.1719 34.9518 27.6709 35.1766C27.1699 35.4014 26.7248 35.7343 26.3676 36.1513C26.0103 36.5684 25.7497 37.0592 25.6045 37.5888C25.4592 38.1184 25.4328 38.6736 25.5273 39.2145C25.6291 41.1781 28.1019 44.3636 29.6582 46.1672H30.851C28.9601 44.0581 26.4873 40.8145 26.4873 39.1709C26.4279 38.7204 26.4604 38.2626 26.5829 37.8251C26.7054 37.3876 26.9153 36.9795 27.2001 36.6254C27.7293 36.1646 28.3917 35.8844 29.091 35.8254C29.0691 36.0819 29.0691 36.3398 29.091 36.5963C29.3306 37.979 29.8237 39.3056 30.5455 40.5091C31.6756 42.511 32.9595 44.4222 34.3855 46.2254H35.5346C35.5346 46.2254 30.3419 39.84 30.0219 36.5381C30.0219 36.5381 29.2219 32.1745 34.2837 32.1745C36.2686 32.2388 38.1489 33.0798 39.5201 34.5163V46.2691H40.4219V34.4727C41.7975 33.034 43.6832 32.193 45.6728 32.1309C50.7201 32.1309 49.9346 36.4945 49.9346 36.4945C49.6001 39.7963 44.4219 46.1818 44.4219 46.1818H45.5564C47.0006 44.3946 48.3039 42.498 49.4546 40.5091C50.1764 39.3056 50.6695 37.979 50.9091 36.5963C50.9234 36.3396 50.9234 36.0822 50.9091 35.8254C51.332 35.8246 51.7495 35.9199 52.1302 36.104C52.5108 36.2881 52.8447 36.5563 53.1066 36.8882C53.3686 37.2202 53.5517 37.6073 53.6422 38.0204C53.7327 38.4334 53.7283 38.8616 53.6291 39.2727C53.6291 40.9163 51.0982 44.16 49.2655 46.2691H50.4728C52.0146 44.4654 54.5019 41.28 54.6037 39.3163C54.6957 38.7745 54.6672 38.2191 54.5201 37.6896C54.3729 37.1601 54.1109 36.6695 53.7525 36.2528C53.3942 35.8361 52.9484 35.5036 52.4469 35.2789C51.9453 35.0542 51.4004 34.9428 50.851 34.9527L50.7928 34.9091Z" fill="#1F1F1F"/>
<path d="M39.9999 25.76C40.1194 25.76 40.2341 25.7125 40.3187 25.628C40.4033 25.5434 40.4508 25.4287 40.4508 25.3091V23.4909C40.4508 23.3714 40.4033 23.2567 40.3187 23.1721C40.2341 23.0875 40.1194 23.04 39.9999 23.04C39.8803 23.04 39.7656 23.0875 39.681 23.1721C39.5965 23.2567 39.549 23.3714 39.549 23.4909V25.3091C39.549 25.4287 39.5965 25.5434 39.681 25.628C39.7656 25.7125 39.8803 25.76 39.9999 25.76Z" fill="#1F1F1F"/>
<path d="M36.8146 27.1273H38.6327C38.6932 27.1292 38.7534 27.119 38.8098 27.0972C38.8662 27.0754 38.9176 27.0425 38.961 27.0005C39.0044 26.9584 39.039 26.908 39.0625 26.8523C39.0861 26.7967 39.0982 26.7368 39.0982 26.6764C39.0982 26.6159 39.0861 26.5561 39.0625 26.5004C39.039 26.4447 39.0044 26.3943 38.961 26.3523C38.9176 26.3102 38.8662 26.2773 38.8098 26.2555C38.7534 26.2337 38.6932 26.2235 38.6327 26.2255H36.8146C36.695 26.2255 36.5803 26.273 36.4957 26.3575C36.4112 26.4421 36.3636 26.5568 36.3636 26.6764C36.3636 26.796 36.4112 26.9106 36.4957 26.9952C36.5803 27.0798 36.695 27.1273 36.8146 27.1273Z" fill="#1F1F1F"/>
<path d="M41.3673 27.1273H43.1855C43.3051 27.1273 43.4197 27.0798 43.5043 26.9952C43.5889 26.9106 43.6364 26.796 43.6364 26.6764C43.6364 26.5568 43.5889 26.4421 43.5043 26.3575C43.4197 26.273 43.3051 26.2255 43.1855 26.2255H41.3673C41.2477 26.2255 41.133 26.273 41.0485 26.3575C40.9639 26.4421 40.9164 26.5568 40.9164 26.6764C40.9164 26.796 40.9639 26.9106 41.0485 26.9952C41.133 27.0798 41.2477 27.1273 41.3673 27.1273Z" fill="#1F1F1F"/>
<path d="M29.5419 50.3127H50.4582V49.4109H29.5419V50.3127Z" fill="#1F1F1F"/>
<path d="M29.5419 52.1308H50.4582V51.229H29.5419V52.1308Z" fill="#1F1F1F"/>
<path d="M29.5419 47.5927V48.0436V48.4945H50.4582V48.0436V47.5927H29.5419Z" fill="#1F1F1F"/>
</svg>
