<svg xmlns="http://www.w3.org/2000/svg">

<symbol id="logo-big" width="100%" height="100%" viewBox="0 0 80 80" fill="#0097A7">
<path d="M39.9999 33.1927C39.7122 33.1927 39.431 33.1074 39.1918 32.9476C38.9526 32.7877 38.7662 32.5606 38.6561 32.2948C38.546 32.029 38.5172 31.7365 38.5733 31.4544C38.6294 31.1722 38.768 30.913 38.9714 30.7096C39.1748 30.5062 39.434 30.3677 39.7161 30.3115C39.9983 30.2554 40.2908 30.2842 40.5565 30.3943C40.8223 30.5044 41.0495 30.6908 41.2093 30.93C41.3692 31.1692 41.4545 31.4505 41.4545 31.7381C41.4545 32.1239 41.3012 32.4939 41.0284 32.7667C40.7557 33.0394 40.3857 33.1927 39.9999 33.1927ZM50.7926 34.9091C50.4145 32.3345 48.3199 31.2145 45.6872 31.2145C44.4728 31.1933 43.2709 31.4626 42.1817 32C42.2636 31.4293 42.1238 30.849 41.7911 30.3783C41.4583 29.9076 40.9579 29.5822 40.3926 29.4691V28.0145C40.3926 27.8949 40.3451 27.7802 40.2606 27.6957C40.176 27.6111 40.0613 27.5636 39.9417 27.5636C39.8221 27.5636 39.7075 27.6111 39.6229 27.6957C39.5383 27.7802 39.4908 27.8949 39.4908 28.0145V29.4691C38.9454 29.6042 38.4706 29.9394 38.1608 30.4082C37.8509 30.877 37.7286 31.4452 37.8181 32C36.7461 31.4518 35.5603 31.1628 34.3563 31.1563C31.7235 31.1563 29.629 32.2763 29.2654 34.8509C28.7159 34.841 28.171 34.9523 27.6695 35.1771C27.1679 35.4018 26.7221 35.7343 26.3638 36.151C26.0054 36.5677 25.7434 37.0582 25.5963 37.5878C25.4492 38.1173 25.4206 38.6727 25.5126 39.2145C25.6145 41.1781 28.1017 44.3636 29.6435 46.1672H30.8508C28.9599 44.0581 26.4872 40.8145 26.4872 39.1709C26.4242 38.7204 26.4551 38.2617 26.5777 37.8237C26.7004 37.3857 26.9122 36.9777 27.1999 36.6254C27.76 36.114 28.4791 35.8109 29.2363 35.7672C29.222 36.024 29.222 36.2814 29.2363 36.5381C29.4759 37.9209 29.9691 39.2474 30.6908 40.4509C31.8209 42.4529 33.1048 44.3641 34.5308 46.1672H35.6654C35.6654 46.1672 30.4872 39.7818 30.1526 36.48C30.1526 36.48 29.3672 32.1163 34.4145 32.1163C36.4041 32.1784 38.2897 33.0194 39.6654 34.4581V46.2109H40.5672V34.4727C41.9356 33.0322 43.8176 32.1905 45.8035 32.1309C50.8654 32.1309 50.0654 36.4945 50.0654 36.4945C49.7454 39.7963 44.5526 46.1818 44.5526 46.1818H45.7017C47.1042 44.3956 48.3592 42.4985 49.4545 40.5091C50.1812 39.3079 50.6746 37.9805 50.909 36.5963C50.9309 36.3398 50.9309 36.0819 50.909 35.8254C51.6713 35.8658 52.396 36.1691 52.9599 36.6836C53.2427 37.0464 53.448 37.4634 53.5631 37.9087C53.6782 38.3541 53.7006 38.8183 53.629 39.2727C53.5417 40.9163 51.0981 44.16 49.2654 46.2691H50.4581C52.0145 44.4654 54.4872 41.28 54.589 39.3163C54.6835 38.7754 54.6571 38.2202 54.5119 37.6906C54.3666 37.1611 54.106 36.6702 53.7488 36.2531C53.3915 35.8361 52.9464 35.5032 52.4454 35.2784C51.9444 35.0536 51.3999 34.9424 50.8508 34.9527L50.7926 34.9091Z"/>
<path d="M39.9999 25.76C40.1194 25.76 40.2341 25.7125 40.3187 25.628C40.4033 25.5434 40.4508 25.4287 40.4508 25.3091V23.4909C40.4508 23.3714 40.4033 23.2567 40.3187 23.1721C40.2341 23.0875 40.1194 23.04 39.9999 23.04C39.8803 23.04 39.7656 23.0875 39.681 23.1721C39.5965 23.2567 39.549 23.3714 39.549 23.4909V25.3091C39.549 25.4287 39.5965 25.5434 39.681 25.628C39.7656 25.7125 39.8803 25.76 39.9999 25.76Z"/>
<path d="M36.8146 27.1273H38.6327C38.7523 27.1273 38.867 27.0798 38.9516 26.9952C39.0361 26.9106 39.0836 26.796 39.0836 26.6764C39.0836 26.5568 39.0361 26.4421 38.9516 26.3575C38.867 26.273 38.7523 26.2255 38.6327 26.2255H36.8146C36.695 26.2255 36.5803 26.273 36.4957 26.3575C36.4112 26.4421 36.3636 26.5568 36.3636 26.6764C36.3636 26.796 36.4112 26.9106 36.4957 26.9952C36.5803 27.0798 36.695 27.1273 36.8146 27.1273Z"/>
<path d="M41.3528 27.1273H43.1855C43.3051 27.1273 43.4198 27.0798 43.5043 26.9952C43.5889 26.9106 43.6364 26.796 43.6364 26.6764C43.6364 26.5568 43.5889 26.4421 43.5043 26.3575C43.4198 26.273 43.3051 26.2255 43.1855 26.2255H41.3528C41.2332 26.2255 41.1185 26.273 41.0339 26.3575C40.9494 26.4421 40.9019 26.5568 40.9019 26.6764C40.9019 26.796 40.9494 26.9106 41.0339 26.9952C41.1185 27.0798 41.2332 27.1273 41.3528 27.1273Z"/>
<path d="M29.5419 50.3127H50.4582V49.4109H29.5419V50.3127Z"/>
<path d="M29.5419 52.1309H50.4582V51.2291H29.5419V52.1309Z"/>
<path d="M29.5419 47.5927V48.0436V48.4945H50.4582V48.0436V47.5927H29.5419Z"/>
<path d="M46.0945 6.18182C46.0945 4.95917 45.7319 3.76398 45.0527 2.74739C44.3734 1.73079 43.4079 0.938453 42.2783 0.470566C41.1488 0.00267848 39.9058 -0.119742 38.7066 0.118785C37.5075 0.357311 36.406 0.946073 35.5415 1.81062C34.6769 2.67516 34.0881 3.77665 33.8496 4.97581C33.6111 6.17496 33.7335 7.41792 34.2014 8.5475C34.6693 9.67708 35.4616 10.6425 36.4782 11.3218C37.4948 12.0011 38.69 12.3636 39.9127 12.3636C41.5522 12.3636 43.1245 11.7123 44.2839 10.553C45.4432 9.39371 46.0945 7.82134 46.0945 6.18182Z"/>
<path d="M46.0945 73.8182C46.0945 72.5955 45.7319 71.4003 45.0527 70.3837C44.3734 69.3671 43.4079 68.5748 42.2783 68.1069C41.1488 67.639 39.9058 67.5166 38.7066 67.7551C37.5075 67.9937 36.406 68.5824 35.5415 69.447C34.6769 70.3115 34.0881 71.413 33.8496 72.6122C33.6111 73.8113 33.7335 75.0543 34.2014 76.1838C34.6693 77.3134 35.4616 78.2789 36.4782 78.9582C37.4948 79.6374 38.69 80 39.9127 80C41.5522 80 43.1245 79.3487 44.2839 78.1894C45.4432 77.0301 46.0945 75.4577 46.0945 73.8182Z"/>
<path d="M73.8182 46.0073C75.0408 46.0073 76.236 45.6447 77.2526 44.9654C78.2692 44.2862 79.0615 43.3207 79.5294 42.1911C79.9973 41.0615 80.1197 39.8186 79.8812 38.6194C79.6427 37.4203 79.0539 36.3188 78.1894 35.4542C77.3248 34.5897 76.2233 34.0009 75.0242 33.7624C73.825 33.5239 72.5821 33.6463 71.4525 34.1142C70.3229 34.5821 69.3574 35.3744 68.6782 36.391C67.9989 37.4076 67.6364 38.6028 67.6364 39.8254C67.6364 41.465 68.2876 43.0373 69.447 44.1966C70.6063 45.356 72.1786 46.0073 73.8182 46.0073Z"/>
<path d="M6.18182 46.0073C7.40447 46.0073 8.59966 45.6447 9.61625 44.9654C10.6328 44.2862 11.4252 43.3207 11.8931 42.1911C12.361 41.0615 12.4834 39.8186 12.2449 38.6194C12.0063 37.4203 11.4176 36.3188 10.553 35.4542C9.68848 34.5897 8.58699 34.0009 7.38783 33.7624C6.18868 33.5239 4.94572 33.6463 3.81614 34.1142C2.68656 34.5821 1.72109 35.3744 1.04182 36.391C0.362557 37.4076 0 38.6028 0 39.8254C0 41.465 0.651297 43.0373 1.81061 44.1966C2.96993 45.356 4.5423 46.0073 6.18182 46.0073Z"/>
<path d="M68.1891 20.3637C69.0558 19.5 69.6467 18.3985 69.887 17.1988C70.1272 15.9991 70.0061 14.755 69.5388 13.6242C69.0715 12.4934 68.2792 11.5266 67.2622 10.8464C66.2451 10.1662 65.0491 9.8031 63.8255 9.8031C62.6019 9.8031 61.4059 10.1662 60.3888 10.8464C59.3718 11.5266 58.5795 12.4934 58.1122 13.6242C57.6449 14.755 57.5238 15.9991 57.764 17.1988C58.0043 18.3985 58.5952 19.5 59.4619 20.3637C60.6206 21.5184 62.1897 22.1667 63.8255 22.1667C65.4613 22.1667 67.0304 21.5184 68.1891 20.3637Z"/>
<path d="M20.3637 68.1891C21.2304 67.3254 21.8213 66.224 22.0615 65.0242C22.3018 63.8245 22.1806 62.5804 21.7134 61.4496C21.2461 60.3188 20.4538 59.3521 19.4367 58.6718C18.4197 57.9916 17.2236 57.6285 16.0001 57.6285C14.7765 57.6285 13.5805 57.9916 12.5634 58.6718C11.5463 59.3521 10.754 60.3188 10.2868 61.4496C9.8195 62.5804 9.69833 63.8245 9.93859 65.0242C10.1789 66.224 10.7697 67.3254 11.6364 68.1891C12.7951 69.3438 14.3642 69.9922 16.0001 69.9922C17.6359 69.9922 19.205 69.3438 20.3637 68.1891Z"/>
<path d="M59.7237 68.1019C60.5874 68.9685 61.6888 69.5594 62.8886 69.7997C64.0883 70.0399 65.3324 69.9188 66.4632 69.4515C67.594 68.9843 68.5608 68.1919 69.241 67.1749C69.9212 66.1578 70.2843 64.9618 70.2843 63.7382C70.2843 62.5147 69.9212 61.3186 69.241 60.3016C68.5608 59.2845 67.594 58.4922 66.4632 58.0249C65.3324 57.5577 64.0883 57.4365 62.8886 57.6768C61.6888 57.917 60.5874 58.5079 59.7237 59.3746C58.569 60.5333 57.9207 62.1024 57.9207 63.7382C57.9207 65.374 58.569 66.9432 59.7237 68.1019Z"/>
<path d="M11.8983 20.2764C12.762 21.1431 13.8634 21.734 15.0632 21.9742C16.2629 22.2145 17.5069 22.0933 18.6378 21.6261C19.7686 21.1588 20.7353 20.3665 21.4155 19.3494C22.0958 18.3324 22.4588 17.1363 22.4588 15.9128C22.4588 14.6892 22.0958 13.4932 21.4155 12.4761C20.7353 11.4591 19.7686 10.6667 18.6378 10.1995C17.5069 9.73222 16.2629 9.61105 15.0632 9.85131C13.8634 10.0916 12.762 10.6825 11.8983 11.5491C10.7436 12.7078 10.0952 14.277 10.0952 15.9128C10.0952 17.5486 10.7436 19.1177 11.8983 20.2764Z"/>
</symbol>

<symbol id="logo-big-graa" width="100%" height="100%" viewBox="0 0 80 80" fill="none">
<path d="M46.0945 6.18182C46.0945 4.95917 45.7319 3.76398 45.0527 2.74739C44.3734 1.73079 43.4079 0.938453 42.2783 0.470566C41.1488 0.00267848 39.9058 -0.119742 38.7066 0.118785C37.5075 0.357311 36.406 0.946073 35.5415 1.81062C34.6769 2.67516 34.0881 3.77665 33.8496 4.97581C33.6111 6.17496 33.7335 7.41792 34.2014 8.5475C34.6693 9.67708 35.4616 10.6425 36.4782 11.3218C37.4948 12.0011 38.69 12.3636 39.9127 12.3636C41.5522 12.3636 43.1245 11.7123 44.2839 10.553C45.4432 9.39371 46.0945 7.82134 46.0945 6.18182Z" fill="#1D1D1B"/>
<path d="M39.9127 80C38.69 80 37.4948 79.6374 36.4782 78.9582C35.4616 78.2789 34.6693 77.3134 34.2014 76.1838C33.7335 75.0543 33.6111 73.8113 33.8496 72.6122C34.0881 71.413 34.6769 70.3115 35.5415 69.447C36.406 68.5824 37.5075 67.9937 38.7066 67.7551C39.9058 67.5166 41.1488 67.639 42.2783 68.1069C43.4079 68.5748 44.3734 69.3671 45.0527 70.3837C45.7319 71.4003 46.0945 72.5955 46.0945 73.8182C46.0945 75.4577 45.4432 77.0301 44.2839 78.1894C43.1245 79.3487 41.5522 80 39.9127 80Z" fill="#B2B2B2"/>
<path d="M73.8182 46.0073C72.5955 46.0073 71.4003 45.6448 70.3837 44.9655C69.3671 44.2862 68.5748 43.3208 68.1069 42.1912C67.639 41.0616 67.5166 39.8186 67.7551 38.6195C67.9937 37.4203 68.5824 36.3188 69.447 35.4543C70.3115 34.5897 71.413 34.001 72.6122 33.7625C73.8113 33.5239 75.0543 33.6464 76.1838 34.1142C77.3134 34.5821 78.2789 35.3745 78.9582 36.3911C79.6374 37.4077 80 38.6028 80 39.8255C80 41.465 79.3487 43.0374 78.1894 44.1967C77.0301 45.356 75.4577 46.0073 73.8182 46.0073Z" fill="#70706F"/>
<path d="M6.18182 46.0073C4.95917 46.0073 3.76398 45.6448 2.74739 44.9655C1.73079 44.2862 0.938453 43.3208 0.470566 42.1912C0.00267848 41.0616 -0.119742 39.8186 0.118785 38.6195C0.357311 37.4203 0.946073 36.3188 1.81062 35.4543C2.67516 34.5897 3.77665 34.001 4.97581 33.7625C6.17496 33.5239 7.41792 33.6464 8.5475 34.1142C9.67708 34.5821 10.6425 35.3745 11.3218 36.3911C12.0011 37.4077 12.3636 38.6028 12.3636 39.8255C12.3636 41.465 11.7123 43.0374 10.553 44.1967C9.39371 45.356 7.82134 46.0073 6.18182 46.0073Z" fill="#D0D0D0"/>
<path d="M63.8255 22.1819C62.3912 22.1868 60.9997 21.694 59.8882 20.7875C58.7767 19.8811 58.014 18.6171 57.7303 17.2111C57.4466 15.8052 57.6595 14.3444 58.3325 13.0779C59.0056 11.8113 60.0971 10.8175 61.4211 10.2658C62.745 9.71419 64.2193 9.63891 65.5926 10.0528C66.9658 10.4668 68.1529 11.3443 68.9515 12.5357C69.75 13.7271 70.1105 15.1586 69.9715 16.5861C69.8325 18.0137 69.2025 19.3487 68.1891 20.3637C67.0329 21.5239 65.4635 22.1779 63.8255 22.1819Z" fill="#4A4A49"/>
<path d="M16 70.0073C14.5658 70.0122 13.1742 69.5194 12.0627 68.613C10.9512 67.7065 10.1886 66.4425 9.9049 65.0366C9.62121 63.6307 9.83403 62.1698 10.5071 60.9033C11.1801 59.6367 12.2717 58.6429 13.5956 58.0913C14.9196 57.5396 16.3939 57.4644 17.7671 57.8783C19.1404 58.2922 20.3275 59.1697 21.126 60.3611C21.9246 61.5525 22.2851 62.9841 22.146 64.4116C22.007 65.8391 21.3771 67.1742 20.3637 68.1891C19.2075 69.3494 17.638 70.0033 16 70.0073Z" fill="#C6C6C6"/>
<path d="M64.1018 69.9055C62.6712 69.9056 61.2848 69.4096 60.179 68.5018C59.0732 67.5941 58.3165 66.331 58.0378 64.9277C57.7592 63.5245 57.9759 62.068 58.651 60.8067C59.326 59.5453 60.4177 58.5571 61.7399 58.0107C63.062 57.4642 64.5328 57.3932 65.9014 57.8098C67.2701 58.2264 68.4519 59.1048 69.2453 60.2953C70.0387 61.4858 70.3947 62.9146 70.2525 64.3381C70.1103 65.7617 69.4787 67.0919 68.4655 68.1019C67.8922 68.6744 67.2118 69.1284 66.4631 69.4378C65.7144 69.7473 64.912 69.9062 64.1018 69.9055Z" fill="#939292"/>
<path d="M16.2763 22.0799C14.8456 22.0801 13.4592 21.584 12.3534 20.6763C11.2476 19.7686 10.4909 18.5054 10.2123 17.1021C9.93362 15.6989 10.1503 14.2424 10.8254 12.9811C11.5005 11.7197 12.5922 10.7316 13.9143 10.1851C15.2365 9.63861 16.7072 9.56762 18.0759 9.98423C19.4445 10.4008 20.6263 11.2793 21.4197 12.4697C22.2131 13.6602 22.5691 15.089 22.4269 16.5126C22.2847 17.9361 21.6532 19.2663 20.6399 20.2763C20.0667 20.8488 19.3863 21.3028 18.6375 21.6123C17.8888 21.9217 17.0864 22.0807 16.2763 22.0799Z" fill="#DADADA"/>
<path d="M40.0001 33.1927C39.7124 33.1927 39.4312 33.1074 39.192 32.9476C38.9528 32.7877 38.7663 32.5606 38.6562 32.2948C38.5461 32.029 38.5173 31.7365 38.5735 31.4544C38.6296 31.1722 38.7681 30.913 38.9715 30.7096C39.175 30.5062 39.4341 30.3677 39.7163 30.3115C39.9984 30.2554 40.2909 30.2842 40.5567 30.3943C40.8225 30.5044 41.0496 30.6908 41.2095 30.93C41.3693 31.1692 41.4546 31.4505 41.4546 31.7381C41.4546 32.1239 41.3014 32.4939 41.0286 32.7667C40.7558 33.0394 40.3858 33.1927 40.0001 33.1927ZM50.7928 34.9091C50.4291 32.3345 48.3346 31.2145 45.7019 31.2145C44.4829 31.1938 43.2764 31.463 42.1819 32C42.2674 31.4288 42.1291 30.8467 41.7957 30.3751C41.4624 29.9035 40.9597 29.5789 40.3928 29.4691V28.0145C40.3928 27.8949 40.3453 27.7802 40.2607 27.6957C40.1762 27.6111 40.0615 27.5636 39.9419 27.5636C39.8223 27.5636 39.7076 27.6111 39.623 27.6957C39.5385 27.7802 39.491 27.8949 39.491 28.0145V29.4691C38.9472 29.6072 38.4746 29.9431 38.1652 30.4111C37.8559 30.8791 37.7322 31.4456 37.8182 32C36.7515 31.4514 35.5704 31.1624 34.371 31.1563C31.7382 31.1563 29.6437 32.2763 29.2655 34.8509C28.7165 34.8405 28.1719 34.9518 27.6709 35.1766C27.1699 35.4014 26.7248 35.7343 26.3676 36.1513C26.0103 36.5684 25.7497 37.0592 25.6045 37.5888C25.4592 38.1184 25.4328 38.6736 25.5273 39.2145C25.6291 41.1781 28.1019 44.3636 29.6582 46.1672H30.851C28.9601 44.0581 26.4873 40.8145 26.4873 39.1709C26.4279 38.7204 26.4604 38.2626 26.5829 37.8251C26.7054 37.3876 26.9153 36.9795 27.2001 36.6254C27.7293 36.1646 28.3917 35.8844 29.091 35.8254C29.0691 36.0819 29.0691 36.3398 29.091 36.5963C29.3306 37.979 29.8237 39.3056 30.5455 40.5091C31.6756 42.511 32.9595 44.4222 34.3855 46.2254H35.5346C35.5346 46.2254 30.3419 39.84 30.0219 36.5381C30.0219 36.5381 29.2219 32.1745 34.2837 32.1745C36.2686 32.2388 38.1489 33.0798 39.5201 34.5163V46.2691H40.4219V34.4727C41.7975 33.034 43.6832 32.193 45.6728 32.1309C50.7201 32.1309 49.9346 36.4945 49.9346 36.4945C49.6001 39.7963 44.4219 46.1818 44.4219 46.1818H45.5564C47.0006 44.3946 48.3039 42.498 49.4546 40.5091C50.1764 39.3056 50.6695 37.979 50.9091 36.5963C50.9234 36.3396 50.9234 36.0822 50.9091 35.8254C51.332 35.8246 51.7495 35.9199 52.1302 36.104C52.5108 36.2881 52.8447 36.5563 53.1066 36.8882C53.3686 37.2202 53.5517 37.6073 53.6422 38.0204C53.7327 38.4334 53.7283 38.8616 53.6291 39.2727C53.6291 40.9163 51.0982 44.16 49.2655 46.2691H50.4728C52.0146 44.4654 54.5019 41.28 54.6037 39.3163C54.6957 38.7745 54.6672 38.2191 54.5201 37.6896C54.3729 37.1601 54.1109 36.6695 53.7525 36.2528C53.3942 35.8361 52.9484 35.5036 52.4469 35.2789C51.9453 35.0542 51.4004 34.9428 50.851 34.9527L50.7928 34.9091Z" fill="#1F1F1F"/>
<path d="M39.9999 25.76C40.1194 25.76 40.2341 25.7125 40.3187 25.628C40.4033 25.5434 40.4508 25.4287 40.4508 25.3091V23.4909C40.4508 23.3714 40.4033 23.2567 40.3187 23.1721C40.2341 23.0875 40.1194 23.04 39.9999 23.04C39.8803 23.04 39.7656 23.0875 39.681 23.1721C39.5965 23.2567 39.549 23.3714 39.549 23.4909V25.3091C39.549 25.4287 39.5965 25.5434 39.681 25.628C39.7656 25.7125 39.8803 25.76 39.9999 25.76Z" fill="#1F1F1F"/>
<path d="M36.8146 27.1273H38.6327C38.6932 27.1292 38.7534 27.119 38.8098 27.0972C38.8662 27.0754 38.9176 27.0425 38.961 27.0005C39.0044 26.9584 39.039 26.908 39.0625 26.8523C39.0861 26.7967 39.0982 26.7368 39.0982 26.6764C39.0982 26.6159 39.0861 26.5561 39.0625 26.5004C39.039 26.4447 39.0044 26.3943 38.961 26.3523C38.9176 26.3102 38.8662 26.2773 38.8098 26.2555C38.7534 26.2337 38.6932 26.2235 38.6327 26.2255H36.8146C36.695 26.2255 36.5803 26.273 36.4957 26.3575C36.4112 26.4421 36.3636 26.5568 36.3636 26.6764C36.3636 26.796 36.4112 26.9106 36.4957 26.9952C36.5803 27.0798 36.695 27.1273 36.8146 27.1273Z" fill="#1F1F1F"/>
<path d="M41.3673 27.1273H43.1855C43.3051 27.1273 43.4197 27.0798 43.5043 26.9952C43.5889 26.9106 43.6364 26.796 43.6364 26.6764C43.6364 26.5568 43.5889 26.4421 43.5043 26.3575C43.4197 26.273 43.3051 26.2255 43.1855 26.2255H41.3673C41.2477 26.2255 41.133 26.273 41.0485 26.3575C40.9639 26.4421 40.9164 26.5568 40.9164 26.6764C40.9164 26.796 40.9639 26.9106 41.0485 26.9952C41.133 27.0798 41.2477 27.1273 41.3673 27.1273Z" fill="#1F1F1F"/>
<path d="M29.5419 50.3127H50.4582V49.4109H29.5419V50.3127Z" fill="#1F1F1F"/>
<path d="M29.5419 52.1308H50.4582V51.229H29.5419V52.1308Z" fill="#1F1F1F"/>
<path d="M29.5419 47.5927V48.0436V48.4945H50.4582V48.0436V47.5927H29.5419Z" fill="#1F1F1F"/>
</symbol>

<symbol id="logo-big-turkis-graa" width="100%" height="100%" viewBox="0 0 80 80" fill="none">
<path d="M39.9128 12.3636C43.3269 12.3636 46.0946 9.59594 46.0946 6.18182C46.0946 2.76769 43.3269 0 39.9128 0C36.4987 0 33.731 2.76769 33.731 6.18182C33.731 9.59594 36.4987 12.3636 39.9128 12.3636Z" fill="#0B97A6"/>
<path opacity="0.4" d="M39.9128 80C43.3269 80 46.0946 77.2323 46.0946 73.8182C46.0946 70.404 43.3269 67.6364 39.9128 67.6364C36.4987 67.6364 33.731 70.404 33.731 73.8182C33.731 77.2323 36.4987 80 39.9128 80Z" fill="#0B97A6"/>
<path opacity="0.7" d="M73.8182 46.0073C77.2323 46.0073 80 43.2396 80 39.8255C80 36.4114 77.2323 33.6437 73.8182 33.6437C70.404 33.6437 67.6364 36.4114 67.6364 39.8255C67.6364 43.2396 70.404 46.0073 73.8182 46.0073Z" fill="#0B97A6"/>
<path opacity="0.25" d="M6.18182 46.0073C9.59594 46.0073 12.3636 43.2396 12.3636 39.8255C12.3636 36.4114 9.59594 33.6437 6.18182 33.6437C2.76769 33.6437 0 36.4114 0 39.8255C0 43.2396 2.76769 46.0073 6.18182 46.0073Z" fill="#0B97A6"/>
<path opacity="0.85" d="M68.1891 20.3637C69.0558 19.5 69.6467 18.3985 69.887 17.1988C70.1272 15.9991 70.0061 14.755 69.5388 13.6242C69.0715 12.4934 68.2792 11.5266 67.2622 10.8464C66.2451 10.1662 65.0491 9.8031 63.8255 9.8031C62.6019 9.8031 61.4059 10.1662 60.3888 10.8464C59.3718 11.5266 58.5795 12.4934 58.1122 13.6242C57.6449 14.755 57.5238 15.9991 57.764 17.1988C58.0043 18.3985 58.5952 19.5 59.4619 20.3637C60.6206 21.5184 62.1897 22.1667 63.8255 22.1667C65.4613 22.1667 67.0304 21.5184 68.1891 20.3637Z" fill="#0B97A6"/>
<path opacity="0.3" d="M20.3637 68.1891C21.2304 67.3254 21.8213 66.224 22.0615 65.0242C22.3018 63.8245 22.1806 62.5804 21.7134 61.4496C21.2461 60.3188 20.4538 59.3521 19.4367 58.6718C18.4197 57.9916 17.2236 57.6285 16.0001 57.6285C14.7765 57.6285 13.5805 57.9916 12.5634 58.6718C11.5463 59.3521 10.754 60.3188 10.2868 61.4496C9.8195 62.5804 9.69833 63.8245 9.93859 65.0242C10.1789 66.224 10.7697 67.3254 11.6364 68.1891C12.7951 69.3438 14.3642 69.9922 16.0001 69.9922C17.6359 69.9922 19.205 69.3438 20.3637 68.1891Z" fill="#0B97A6"/>
<path opacity="0.55" d="M59.7236 68.1019C60.5873 68.9685 61.6887 69.5594 62.8885 69.7997C64.0882 70.0399 65.3323 69.9188 66.4631 69.4515C67.5939 68.9843 68.5606 68.1919 69.2409 67.1749C69.9211 66.1578 70.2842 64.9618 70.2842 63.7382C70.2842 62.5147 69.9211 61.3186 69.2409 60.3016C68.5606 59.2845 67.5939 58.4922 66.4631 58.0249C65.3323 57.5577 64.0882 57.4365 62.8885 57.6768C61.6887 57.917 60.5873 58.5079 59.7236 59.3746C58.5689 60.5333 57.9205 62.1024 57.9205 63.7382C57.9205 65.374 58.5689 66.9432 59.7236 68.1019Z" fill="#0B97A6"/>
<path opacity="0.2" d="M11.8981 20.2764C12.7618 21.1431 13.8633 21.734 15.063 21.9742C16.2628 22.2145 17.5068 22.0933 18.6376 21.6261C19.7685 21.1588 20.7352 20.3665 21.4154 19.3494C22.0956 18.3324 22.4587 17.1363 22.4587 15.9128C22.4587 14.6892 22.0956 13.4932 21.4154 12.4761C20.7352 11.4591 19.7685 10.6667 18.6376 10.1995C17.5068 9.73222 16.2628 9.61105 15.063 9.85131C13.8633 10.0916 12.7618 10.6825 11.8981 11.5491C10.7435 12.7078 10.0951 14.277 10.0951 15.9128C10.0951 17.5486 10.7435 19.1177 11.8981 20.2764Z" fill="#0B97A6"/>
<path d="M50.7928 34.9091C50.4291 32.3345 48.3346 31.2145 45.7019 31.2145C44.4829 31.1938 43.2764 31.463 42.1819 32C42.2674 31.4288 42.1291 30.8467 41.7957 30.3751C41.4624 29.9035 40.9597 29.5789 40.3928 29.4691V28.0145C40.3928 27.8949 40.3453 27.7802 40.2607 27.6957C40.1762 27.6111 40.0615 27.5636 39.9419 27.5636C39.8223 27.5636 39.7076 27.6111 39.623 27.6957C39.5385 27.7802 39.491 27.8949 39.491 28.0145V29.4691C38.9472 29.6072 38.4746 29.9431 38.1652 30.4111C37.8559 30.8791 37.7322 31.4456 37.8182 32C36.7515 31.4514 35.5704 31.1624 34.371 31.1563C31.7382 31.1563 29.6437 32.2763 29.2655 34.8509C28.7165 34.8405 28.1719 34.9518 27.6709 35.1766C27.1699 35.4014 26.7248 35.7343 26.3676 36.1513C26.0103 36.5684 25.7497 37.0592 25.6045 37.5888C25.4592 38.1184 25.4328 38.6736 25.5273 39.2145C25.6291 41.1781 28.1019 44.3636 29.6582 46.1672H30.851C28.9601 44.0581 26.4873 40.8145 26.4873 39.1709C26.4279 38.7204 26.4604 38.2626 26.5829 37.8251C26.7054 37.3876 26.9153 36.9795 27.2001 36.6254C27.7293 36.1646 28.3917 35.8844 29.091 35.8254C29.0691 36.0819 29.0691 36.3398 29.091 36.5963C29.3306 37.979 29.8237 39.3056 30.5455 40.5091C31.6756 42.511 32.9595 44.4222 34.3855 46.2254H35.5346C35.5346 46.2254 30.3419 39.84 30.0219 36.5381C30.0219 36.5381 29.2219 32.1745 34.2837 32.1745C36.2686 32.2388 38.1489 33.0798 39.5201 34.5163V46.2691H40.4219V34.4727C41.7975 33.034 43.6832 32.193 45.6728 32.1309C50.7201 32.1309 49.9346 36.4945 49.9346 36.4945C49.6001 39.7963 44.4219 46.1818 44.4219 46.1818H45.5564C47.0006 44.3946 48.3039 42.498 49.4546 40.5091C50.1764 39.3056 50.6695 37.979 50.9091 36.5963C50.9234 36.3396 50.9234 36.0822 50.9091 35.8254C51.332 35.8246 51.7495 35.9199 52.1302 36.104C52.5108 36.2881 52.8447 36.5563 53.1066 36.8882C53.3686 37.2202 53.5517 37.6073 53.6422 38.0204C53.7327 38.4334 53.7283 38.8616 53.6291 39.2727C53.6291 40.9163 51.0982 44.16 49.2655 46.2691H50.4728C52.0146 44.4654 54.5019 41.28 54.6037 39.3163C54.7041 38.7664 54.6799 38.2009 54.5328 37.6615C54.3858 37.1222 54.1196 36.6227 53.754 36.1998C53.3883 35.7769 52.9325 35.4414 52.42 35.2181C51.9075 34.9947 51.3515 34.8891 50.7928 34.9091ZM40.0001 33.1927C39.7124 33.1927 39.4312 33.1074 39.192 32.9476C38.9528 32.7877 38.7663 32.5606 38.6562 32.2948C38.5461 32.029 38.5173 31.7365 38.5735 31.4544C38.6296 31.1722 38.7681 30.913 38.9715 30.7096C39.175 30.5062 39.4341 30.3677 39.7163 30.3115C39.9984 30.2554 40.2909 30.2842 40.5567 30.3943C40.8225 30.5044 41.0496 30.6908 41.2095 30.93C41.3693 31.1692 41.4546 31.4505 41.4546 31.7381C41.4546 32.1239 41.3014 32.4939 41.0286 32.7667C40.7558 33.0394 40.3858 33.1927 40.0001 33.1927Z" fill="#1F1F1F"/>
<path d="M40 25.76C40.1196 25.76 40.2343 25.7125 40.3188 25.628C40.4034 25.5434 40.4509 25.4287 40.4509 25.3091V23.4909C40.4509 23.3714 40.4034 23.2567 40.3188 23.1721C40.2343 23.0875 40.1196 23.04 40 23.04C39.8804 23.04 39.7657 23.0875 39.6811 23.1721C39.5966 23.2567 39.5491 23.3714 39.5491 23.4909V25.3091C39.5491 25.3683 39.5607 25.427 39.5834 25.4817C39.6061 25.5364 39.6393 25.5861 39.6811 25.628C39.723 25.6698 39.7727 25.7031 39.8274 25.7257C39.8821 25.7484 39.9408 25.76 40 25.76Z" fill="#1F1F1F"/>
<path d="M36.8146 27.1273H38.6327C38.6932 27.1292 38.7534 27.119 38.8098 27.0972C38.8662 27.0754 38.9176 27.0425 38.961 27.0005C39.0044 26.9584 39.039 26.908 39.0625 26.8523C39.0861 26.7967 39.0982 26.7368 39.0982 26.6764C39.0982 26.6159 39.0861 26.5561 39.0625 26.5004C39.039 26.4447 39.0044 26.3943 38.961 26.3523C38.9176 26.3102 38.8662 26.2773 38.8098 26.2555C38.7534 26.2337 38.6932 26.2235 38.6327 26.2255H36.8146C36.695 26.2255 36.5803 26.273 36.4957 26.3575C36.4112 26.4421 36.3636 26.5568 36.3636 26.6764C36.3636 26.796 36.4112 26.9106 36.4957 26.9952C36.5803 27.0798 36.695 27.1273 36.8146 27.1273Z" fill="#1F1F1F"/>
<path d="M41.3673 27.1273H43.1855C43.3051 27.1273 43.4198 27.0798 43.5043 26.9952C43.5889 26.9107 43.6364 26.796 43.6364 26.6764C43.6364 26.5568 43.5889 26.4421 43.5043 26.3575C43.4198 26.273 43.3051 26.2255 43.1855 26.2255H41.3673C41.2477 26.2255 41.133 26.273 41.0485 26.3575C40.9639 26.4421 40.9164 26.5568 40.9164 26.6764C40.9164 26.796 40.9639 26.9107 41.0485 26.9952C41.133 27.0798 41.2477 27.1273 41.3673 27.1273Z" fill="#1F1F1F"/>
<path d="M50.4582 49.4109H29.5419V50.3127H50.4582V49.4109Z" fill="#1F1F1F"/>
<path d="M50.4582 51.2146H29.5419V52.1164H50.4582V51.2146Z" fill="#1F1F1F"/>
<path d="M29.5419 47.5928V48.0437V48.4946H50.4582V48.0437V47.5928H29.5419Z" fill="#1F1F1F"/>
</symbol>

<symbol id="logo-medium" width="100%" height="100%" viewBox="0 0 24 24" fill="black">
<path d="M11.7501 13.5C11.7501 13.6381 11.862 13.75 12.0001 13.75C12.1381 13.75 12.2501 13.6381 12.2501 13.5H11.7501ZM9.00005 14.1501C8.86198 14.1501 8.75005 14.262 8.75005 14.4001C8.75005 14.5381 8.86198 14.6501 9.00005 14.6501V14.1501ZM15.0001 14.6501C15.1381 14.6501 15.2501 14.5381 15.2501 14.4001C15.2501 14.262 15.1381 14.1501 15.0001 14.1501V14.6501ZM9.00005 14.7501C8.86198 14.7501 8.75005 14.862 8.75005 15.0001C8.75005 15.1381 8.86198 15.2501 9.00005 15.2501V14.7501ZM15.0001 15.2501C15.1381 15.2501 15.2501 15.1381 15.2501 15.0001C15.2501 14.862 15.1381 14.7501 15.0001 14.7501V15.2501ZM9.00005 15.3501C8.86198 15.3501 8.75005 15.462 8.75005 15.6001C8.75005 15.7381 8.86198 15.8501 9.00005 15.8501V15.3501ZM15.0001 15.8501C15.1381 15.8501 15.2501 15.7381 15.2501 15.6001C15.2501 15.462 15.1381 15.3501 15.0001 15.3501V15.8501ZM12.2501 6.8175C12.2501 6.67943 12.1381 6.5675 12.0001 6.5675C11.862 6.5675 11.7501 6.67943 11.7501 6.8175H12.2501ZM11.7501 7.30877C11.7501 7.44684 11.862 7.55877 12.0001 7.55877C12.1381 7.55877 12.2501 7.44684 12.2501 7.30877H11.7501ZM12.2501 8.29129C12.2501 8.15322 12.1381 8.04129 12.0001 8.04129C11.862 8.04129 11.7501 8.15322 11.7501 8.29129H12.2501ZM12.9826 8.05003C13.1207 8.05003 13.2326 7.9381 13.2326 7.80003C13.2326 7.66196 13.1207 7.55003 12.9826 7.55003V8.05003ZM12.4913 7.55003C12.3533 7.55003 12.2413 7.66196 12.2413 7.80003C12.2413 7.9381 12.3533 8.05003 12.4913 8.05003V7.55003ZM11.5088 8.05003C11.6469 8.05003 11.7588 7.9381 11.7588 7.80003C11.7588 7.66196 11.6469 7.55003 11.5088 7.55003V8.05003ZM11.0175 7.55003C10.8795 7.55003 10.7675 7.66196 10.7675 7.80003C10.7675 7.9381 10.8795 8.05003 11.0175 8.05003V7.55003ZM13.3061 13.3423C13.219 13.4495 13.2352 13.6069 13.3423 13.694C13.4495 13.7811 13.6069 13.7649 13.694 13.6578L13.3061 13.3423ZM15.0001 10.25C14.862 10.25 14.7501 10.362 14.7501 10.5C14.7501 10.6381 14.862 10.75 15.0001 10.75V10.25ZM14.8208 13.3258C14.7246 13.4248 14.7268 13.5831 14.8258 13.6793C14.9248 13.7756 15.0831 13.7733 15.1793 13.6743L14.8208 13.3258ZM10.3061 13.6578C10.3932 13.7649 10.5507 13.7811 10.6578 13.694C10.7649 13.6069 10.7811 13.4495 10.694 13.3423L10.3061 13.6578ZM9.00005 10.75C9.13812 10.75 9.25005 10.6381 9.25005 10.5C9.25005 10.362 9.13812 10.25 9.00005 10.25V10.75ZM8.82078 13.6743C8.91702 13.7733 9.07529 13.7756 9.1743 13.6793C9.27331 13.5831 9.27556 13.4248 9.17932 13.3258L8.82078 13.6743ZM12.2501 13.5V10.2H11.7501V13.5H12.2501ZM9.00005 14.6501H15.0001V14.1501H9.00005V14.6501ZM9.00005 15.2501H15.0001V14.7501H9.00005V15.2501ZM9.00005 15.8501H15.0001V15.3501H9.00005V15.8501ZM11.7501 6.8175V7.30877H12.2501V6.8175H11.7501ZM11.7501 8.29129V8.78255H12.2501V8.29129H11.7501ZM12.9826 7.55003H12.4913V8.05003H12.9826V7.55003ZM11.5088 7.55003H11.0175V8.05003H11.5088V7.55003ZM12.1992 10.3512C12.2739 10.2528 12.4752 10.0481 12.765 9.86913C13.0529 9.69133 13.4102 9.55004 13.8001 9.55004V9.05004C13.2899 9.05004 12.842 9.23392 12.5023 9.44371C12.1644 9.65237 11.9157 9.89764 11.8009 10.0489L12.1992 10.3512ZM13.8001 9.55004C14.1895 9.55004 14.4088 9.67613 14.5395 9.84581C14.6794 10.0274 14.7501 10.3006 14.7501 10.6482H15.2501C15.2501 10.2468 15.1707 9.84592 14.9356 9.54069C14.6913 9.22354 14.3107 9.05004 13.8001 9.05004V9.55004ZM14.7501 10.6482C14.7501 11.0371 14.6099 11.444 14.3528 11.8939C14.0953 12.3442 13.7318 12.8188 13.3061 13.3423L13.694 13.6578C14.121 13.1327 14.5074 12.6308 14.7868 12.142C15.0665 11.6528 15.2501 11.158 15.2501 10.6482H14.7501ZM15.0001 10.75C15.366 10.75 15.6039 10.8292 15.7449 10.9381C15.8763 11.0396 15.9501 11.187 15.9501 11.4H16.4501C16.4501 11.0537 16.3207 10.751 16.0505 10.5424C15.7899 10.3411 15.4277 10.25 15.0001 10.25V10.75ZM15.9501 11.4C15.9501 11.6159 15.8544 11.9104 15.6538 12.2567C15.4562 12.5978 15.1698 12.9668 14.8208 13.3258L15.1793 13.6743C15.5504 13.2926 15.864 12.8913 16.0864 12.5074C16.3057 12.1288 16.4501 11.7436 16.4501 11.4H15.9501ZM12.1992 10.0489C12.0844 9.89764 11.8358 9.65237 11.4979 9.44371C11.1581 9.23392 10.7102 9.05004 10.2001 9.05004V9.55004C10.59 9.55004 10.9472 9.69133 11.2352 9.86913C11.5249 10.0481 11.7262 10.2528 11.8009 10.3512L12.1992 10.0489ZM10.2001 9.05004C9.68947 9.05004 9.30881 9.22354 9.06451 9.54069C8.82939 9.84592 8.75006 10.2468 8.75006 10.6482H9.25006C9.25006 10.3006 9.32073 10.0274 9.46062 9.84581C9.59132 9.67613 9.81066 9.55004 10.2001 9.55004V9.05004ZM8.75006 10.6482C8.75006 11.158 8.93361 11.6528 9.21329 12.142C9.49271 12.6308 9.87916 13.1327 10.3061 13.6578L10.694 13.3423C10.2683 12.8188 9.90479 12.3442 9.64737 11.8939C9.39021 11.444 9.25006 11.0371 9.25006 10.6482H8.75006ZM9.00005 10.25C8.57237 10.25 8.21024 10.3411 7.94962 10.5424C7.67946 10.751 7.55005 11.0537 7.55005 11.4H8.05005C8.05005 11.187 8.12381 11.0396 8.25524 10.9381C8.39622 10.8292 8.63408 10.75 9.00005 10.75V10.25ZM7.55005 11.4C7.55005 11.7436 7.69439 12.1288 7.91373 12.5074C8.13614 12.8913 8.44974 13.2926 8.82078 13.6743L9.17932 13.3258C8.83036 12.9668 8.54396 12.5978 8.34637 12.2567C8.14571 11.9104 8.05005 11.6159 8.05005 11.4H7.55005ZM12.3201 9.35254C12.3201 9.52928 12.1768 9.67255 12.0001 9.67255V10.1725C12.453 10.1725 12.8201 9.80542 12.8201 9.35254H12.3201ZM12.0001 9.67255C11.8234 9.67255 11.6801 9.52928 11.6801 9.35254H11.1801C11.1801 9.80542 11.5472 10.1725 12.0001 10.1725V9.67255ZM11.6801 9.35254C11.6801 9.1758 11.8233 9.03255 12.0001 9.03255V8.53255C11.5472 8.53255 11.1801 8.89968 11.1801 9.35254H11.6801ZM12.0001 9.03255C12.1768 9.03255 12.3201 9.17583 12.3201 9.35254H12.8201C12.8201 8.89965 12.4529 8.53255 12.0001 8.53255V9.03255Z" />
<path d="M12 3.60001C12.9941 3.60001 13.8 2.79412 13.8 1.8C13.8 0.80589 12.9941 0 12 0C11.0058 0 10.2 0.80589 10.2 1.8C10.2 2.79412 11.0058 3.60001 12 3.60001Z"/>
<path d="M12 24.0001C12.9941 24.0001 13.8 23.1942 13.8 22.2001C13.8 21.2059 12.9941 20.4001 12 20.4001C11.0058 20.4001 10.2 21.2059 10.2 22.2001C10.2 23.1942 11.0058 24.0001 12 24.0001Z"/>
<path d="M22.2 13.8C23.1941 13.8 24 12.9941 24 12C24 11.0059 23.1941 10.2 22.2 10.2C21.2059 10.2 20.4 11.0059 20.4 12C20.4 12.9941 21.2059 13.8 22.2 13.8Z"/>
<path d="M1.80001 13.8C2.79412 13.8 3.60001 12.9941 3.60001 12C3.60001 11.0059 2.79412 10.2 1.80001 10.2C0.80589 10.2 0 11.0059 0 12C0 12.9941 0.80589 13.8 1.80001 13.8Z"/>
<path d="M19.2 6.60002C20.1941 6.60002 21 5.79413 21 4.80002C21 3.8059 20.1941 3.00002 19.2 3.00002C18.2059 3.00002 17.4 3.8059 17.4 4.80002C17.4 5.79413 18.2059 6.60002 19.2 6.60002Z"/>
<path d="M4.8 21.0001C5.79412 21.0001 6.60001 20.1942 6.60001 19.2C6.60001 18.2059 5.79412 17.4 4.8 17.4C3.80589 17.4 3 18.2059 3 19.2C3 20.1942 3.80589 21.0001 4.8 21.0001Z"/>
<path d="M19.2 21.0001C20.1941 21.0001 21 20.1942 21 19.2C21 18.2059 20.1941 17.4 19.2 17.4C18.2059 17.4 17.4 18.2059 17.4 19.2C17.4 20.1942 18.2059 21.0001 19.2 21.0001Z"/>
<path d="M4.8 6.60002C5.79412 6.60002 6.60001 5.79413 6.60001 4.80002C6.60001 3.8059 5.79412 3.00002 4.8 3.00002C3.80589 3.00002 3 3.8059 3 4.80002C3 5.79413 3.80589 6.60002 4.8 6.60002Z"/>
</symbol>

<symbol id="logo-micro" width="100%" height="100%" viewBox="0 0 24 24" fill="#0097A7">
<path d="M8.66662 14.75C8.52855 14.75 8.41662 14.8619 8.41662 15C8.41662 15.1381 8.52855 15.25 8.66662 15.25V14.75ZM15.3333 15.25C15.4714 15.25 15.5833 15.1381 15.5833 15C15.5833 14.8619 15.4714 14.75 15.3333 14.75V15.25ZM8.66662 16.0833C8.52855 16.0833 8.41662 16.1953 8.41662 16.3333C8.41662 16.4714 8.52855 16.5833 8.66662 16.5833V16.0833ZM15.3333 16.5833C15.4714 16.5833 15.5833 16.4714 15.5833 16.3333C15.5833 16.1953 15.4714 16.0833 15.3333 16.0833V16.5833ZM12.25 6C12.25 5.86193 12.138 5.75 12 5.75C11.8619 5.75 11.75 5.86193 11.75 6H12.25ZM11.75 6.53805C11.75 6.67612 11.8619 6.78805 12 6.78805C12.138 6.78805 12.25 6.67612 12.25 6.53805H11.75ZM12.25 8.12862C12.25 7.99055 12.138 7.87862 12 7.87862C11.8619 7.87862 11.75 7.99055 11.75 8.12862H12.25ZM11.75 8.66667C11.75 8.80474 11.8619 8.91667 12 8.91667C12.138 8.91667 12.25 8.80474 12.25 8.66667H11.75ZM13.3333 7.58333C13.4714 7.58333 13.5833 7.4714 13.5833 7.33333C13.5833 7.19526 13.4714 7.08333 13.3333 7.08333V7.58333ZM12.7952 7.08333C12.6571 7.08333 12.5452 7.19526 12.5452 7.33333C12.5452 7.4714 12.6571 7.58333 12.7952 7.58333V7.08333ZM11.2046 7.58333C11.3427 7.58333 11.4546 7.4714 11.4546 7.33333C11.4546 7.19526 11.3427 7.08333 11.2046 7.08333V7.58333ZM10.6666 7.08333C10.5285 7.08333 10.4166 7.19526 10.4166 7.33333C10.4166 7.4714 10.5285 7.58333 10.6666 7.58333V7.08333ZM11.75 13.6667C11.75 13.8047 11.8619 13.9167 12 13.9167C12.138 13.9167 12.25 13.8047 12.25 13.6667H11.75ZM12.25 9.71845C12.25 9.58038 12.138 9.46845 12 9.46845C11.8619 9.46845 11.75 9.58038 11.75 9.71845H12.25ZM13.4044 13.5181C13.3224 13.6292 13.3459 13.7857 13.457 13.8678C13.5681 13.9498 13.7246 13.9263 13.8066 13.8152L13.4044 13.5181ZM12.6666 8.75C12.5285 8.75 12.4166 8.86193 12.4166 9C12.4166 9.13807 12.5285 9.25 12.6666 9.25V8.75ZM15.966 9.79506C15.8287 9.78055 15.7056 9.8801 15.6911 10.0174C15.6766 10.1547 15.7762 10.2778 15.9135 10.2923L15.966 9.79506ZM15.3703 13.4681C15.2809 13.5734 15.2938 13.7311 15.399 13.8205C15.5042 13.9099 15.662 13.8971 15.7514 13.7919L15.3703 13.4681ZM10.1933 13.8152C10.2753 13.9263 10.4318 13.9498 10.5429 13.8678C10.654 13.7857 10.6775 13.6292 10.5955 13.5181L10.1933 13.8152ZM11.3333 9.25C11.4713 9.25 11.5833 9.13807 11.5833 9C11.5833 8.86193 11.4713 8.75 11.3333 8.75V9.25ZM8.08644 10.2923C8.22375 10.2778 8.3233 10.1547 8.30879 10.0174C8.29429 9.8801 8.17122 9.78055 8.03391 9.79506L8.08644 10.2923ZM8.24853 13.7919C8.33793 13.8971 8.4957 13.9099 8.60092 13.8205C8.70614 13.7311 8.71896 13.5734 8.62956 13.4681L8.24853 13.7919ZM8.66662 15.25H15.3333V14.75H8.66662V15.25ZM8.66662 16.5833H15.3333V16.0833H8.66662V16.5833ZM11.75 6V6.53805H12.25V6H11.75ZM11.75 8.12862V8.66667H12.25V8.12862H11.75ZM13.3333 7.08333H12.7952V7.58333H13.3333V7.08333ZM11.2046 7.08333H10.6666V7.58333H11.2046V7.08333ZM12.25 13.6667V9.71845H11.75V13.6667H12.25ZM13.6055 9.25C13.8278 9.25 14.1472 9.37928 14.4162 9.63839C14.6793 9.89178 14.8695 10.2464 14.8695 10.6667H15.3695C15.3695 10.087 15.1056 9.60822 14.7631 9.27828C14.4265 8.95406 13.9888 8.75 13.6055 8.75V9.25ZM14.8695 10.6667C14.8695 11.1085 14.7262 11.5242 14.4676 11.9818C14.2061 12.4445 13.8393 12.9294 13.4044 13.5181L13.8066 13.8152C14.2323 13.2389 14.6225 12.7238 14.9029 12.2278C15.1861 11.7266 15.3695 11.2248 15.3695 10.6667H14.8695ZM13.6055 8.75H12.6666V9.25H13.6055V8.75ZM15.9135 10.2923C16.0322 10.3048 16.1927 10.398 16.321 10.5975C16.4456 10.7913 16.5256 11.0676 16.4908 11.397L16.988 11.4495C17.0344 11.0104 16.9296 10.6197 16.7416 10.3272C16.5573 10.0404 16.2774 9.82796 15.966 9.79506L15.9135 10.2923ZM16.4908 11.397C16.418 12.0855 16.0711 12.6434 15.3703 13.4681L15.7514 13.7919C16.4624 12.9551 16.8984 12.298 16.988 11.4495L16.4908 11.397ZM10.3944 8.75C10.0111 8.75 9.57344 8.95406 9.23684 9.27828C8.89432 9.60822 8.63039 10.087 8.63039 10.6667H9.13039C9.13039 10.2464 9.32065 9.89178 9.58372 9.63839C9.85272 9.37928 10.1721 9.25 10.3944 9.25V8.75ZM8.63039 10.6667C8.63039 11.2248 8.81377 11.7266 9.09702 12.2278C9.37736 12.7238 9.76758 13.2389 10.1933 13.8152L10.5955 13.5181C10.1606 12.9294 9.79381 12.4445 9.53231 11.9818C9.27371 11.5242 9.13039 11.1085 9.13039 10.6667H8.63039ZM10.3944 9.25H11.3333V8.75H10.3944V9.25ZM8.03391 9.79506C7.72248 9.82796 7.44261 10.0404 7.25829 10.3272C7.07029 10.6197 6.96553 11.0104 7.01192 11.4495L7.50915 11.397C7.47435 11.0676 7.55433 10.7913 7.6789 10.5975C7.80716 10.398 7.9677 10.3048 8.08644 10.2923L8.03391 9.79506ZM7.01192 11.4495C7.10155 12.298 7.5375 12.9551 8.24853 13.7919L8.62956 13.4681C7.92881 12.6434 7.58189 12.0855 7.50915 11.397L7.01192 11.4495Z"/>
<path d="M12 3.60001C12.9941 3.60001 13.8 2.79412 13.8 1.8C13.8 0.80589 12.9941 0 12 0C11.0058 0 10.2 0.80589 10.2 1.8C10.2 2.79412 11.0058 3.60001 12 3.60001Z"/>
<path d="M12 24.0001C12.9941 24.0001 13.8 23.1942 13.8 22.2001C13.8 21.2059 12.9941 20.4001 12 20.4001C11.0058 20.4001 10.2 21.2059 10.2 22.2001C10.2 23.1942 11.0058 24.0001 12 24.0001Z"/>
<path d="M22.2 13.8C23.1941 13.8 24 12.9941 24 12C24 11.0059 23.1941 10.2 22.2 10.2C21.2059 10.2 20.4 11.0059 20.4 12C20.4 12.9941 21.2059 13.8 22.2 13.8Z"/>
<path d="M1.80001 13.8C2.79412 13.8 3.60001 12.9941 3.60001 12C3.60001 11.0059 2.79412 10.2 1.80001 10.2C0.80589 10.2 0 11.0059 0 12C0 12.9941 0.80589 13.8 1.80001 13.8Z"/>
<path d="M19.2 6.60002C20.1941 6.60002 21 5.79413 21 4.80002C21 3.8059 20.1941 3.00002 19.2 3.00002C18.2059 3.00002 17.4 3.8059 17.4 4.80002C17.4 5.79413 18.2059 6.60002 19.2 6.60002Z"/>
<path d="M4.8 21.0001C5.79412 21.0001 6.60001 20.1942 6.60001 19.2001C6.60001 18.2059 5.79412 17.4001 4.8 17.4001C3.80589 17.4001 3 18.2059 3 19.2001C3 20.1942 3.80589 21.0001 4.8 21.0001Z"/>
<path d="M19.2 21.0001C20.1941 21.0001 21 20.1942 21 19.2001C21 18.2059 20.1941 17.4001 19.2 17.4001C18.2059 17.4001 17.4 18.2059 17.4 19.2001C17.4 20.1942 18.2059 21.0001 19.2 21.0001Z"/>
<path d="M4.8 6.60002C5.79412 6.60002 6.60001 5.79413 6.60001 4.80002C6.60001 3.8059 5.79412 3.00002 4.8 3.00002C3.80589 3.00002 3 3.8059 3 4.80002C3 5.79413 3.80589 6.60002 4.8 6.60002Z"/>
</symbol>

<symbol id="logo-simple" width="100%" height="100%" viewBox="0 0 24 24" fill="#0097A7">
<path d="M11.75 14.5C11.75 14.6381 11.8619 14.75 12 14.75C12.1381 14.75 12.25 14.6381 12.25 14.5H11.75ZM7 15.75C6.86193 15.75 6.75 15.8619 6.75 16C6.75 16.1381 6.86193 16.25 7 16.25V15.75ZM17 16.25C17.1381 16.25 17.25 16.1381 17.25 16C17.25 15.8619 17.1381 15.75 17 15.75V16.25ZM7 16.75C6.86193 16.75 6.75 16.8619 6.75 17C6.75 17.1381 6.86193 17.25 7 17.25V16.75ZM17 17.25C17.1381 17.25 17.25 17.1381 17.25 17C17.25 16.8619 17.1381 16.75 17 16.75V17.25ZM7 17.75C6.86193 17.75 6.75 17.8619 6.75 18C6.75 18.1381 6.86193 18.25 7 18.25V17.75ZM17 18.25C17.1381 18.25 17.25 18.1381 17.25 18C17.25 17.8619 17.1381 17.75 17 17.75V18.25ZM12.25 3.36246C12.25 3.22439 12.1381 3.11246 12 3.11246C11.8619 3.11246 11.75 3.22439 11.75 3.36246H12.25ZM11.75 4.18123C11.75 4.3193 11.8619 4.43123 12 4.43123C12.1381 4.43123 12.25 4.3193 12.25 4.18123H11.75ZM12.25 5.81876C12.25 5.68068 12.1381 5.56876 12 5.56876C11.8619 5.56876 11.75 5.68068 11.75 5.81876H12.25ZM13.6376 5.25C13.7756 5.25 13.8876 5.13807 13.8876 5C13.8876 4.86193 13.7756 4.75 13.6376 4.75V5.25ZM12.8188 4.75C12.6807 4.75 12.5688 4.86193 12.5688 5C12.5688 5.13807 12.6807 5.25 12.8188 5.25V4.75ZM11.1812 5.25C11.3193 5.25 11.4312 5.13807 11.4312 5C11.4312 4.86193 11.3193 4.75 11.1812 4.75V5.25ZM10.3624 4.75C10.2244 4.75 10.1124 4.86193 10.1124 5C10.1124 5.13807 10.2244 5.25 10.3624 5.25V4.75ZM14.306 14.3423C14.2189 14.4494 14.2351 14.6069 14.3423 14.694C14.4494 14.7811 14.6068 14.7648 14.6939 14.6577L14.306 14.3423ZM17 9.25C16.8619 9.25 16.75 9.36193 16.75 9.5C16.75 9.63807 16.8619 9.75 17 9.75V9.25ZM16.8207 14.3258C16.7245 14.4248 16.7267 14.583 16.8258 14.6793C16.9248 14.7755 17.083 14.7733 17.1793 14.6742L16.8207 14.3258ZM9.30605 14.6577C9.39316 14.7648 9.55062 14.7811 9.65774 14.694C9.76487 14.6069 9.78109 14.4494 9.69399 14.3423L9.30605 14.6577ZM7 9.75C7.13807 9.75 7.25 9.63807 7.25 9.5C7.25 9.36193 7.13807 9.25 7 9.25V9.75ZM6.82073 14.6742C6.91697 14.7733 7.07524 14.7755 7.17425 14.6793C7.27326 14.583 7.2755 14.4248 7.17927 14.3258L6.82073 14.6742ZM12.25 14.5V9H11.75V14.5H12.25ZM7 16.25H17V15.75H7V16.25ZM7 17.25H17V16.75H7V17.25ZM7 18.25H17V17.75H7V18.25ZM11.75 3.36246V4.18123H12.25V3.36246H11.75ZM11.75 5.81876V6.63753H12.25V5.81876H11.75ZM13.6376 4.75H12.8188V5.25H13.6376V4.75ZM11.1812 4.75H10.3624V5.25H11.1812V4.75ZM12.1991 9.15114C12.337 8.96952 12.6883 8.6148 13.1873 8.30667C13.6844 7.99968 14.3101 7.75 15 7.75V7.25C14.1899 7.25 13.4735 7.54227 12.9246 7.88126C12.3775 8.21911 11.9788 8.61438 11.8009 8.84886L12.1991 9.15114ZM15 7.75C15.6894 7.75 16.1087 7.97595 16.3644 8.30791C16.6293 8.65179 16.75 9.14967 16.75 9.74691H17.25C17.25 9.09587 17.1207 8.4703 16.7605 8.00279C16.3912 7.52336 15.8106 7.25 15 7.25V7.75ZM16.75 9.74691C16.75 10.4354 16.5019 11.1429 16.0658 11.9058C15.6295 12.6691 15.0159 13.4692 14.306 14.3423L14.6939 14.6577C15.4051 13.7832 16.0415 12.9557 16.4999 12.1539C16.9585 11.3516 17.25 10.5563 17.25 9.74691H16.75ZM17 9.75C17.6305 9.75 18.0684 9.88597 18.3432 10.0982C18.6085 10.3031 18.75 10.6005 18.75 11H19.25C19.25 10.4672 19.0529 10.0145 18.6488 9.7025C18.2544 9.39785 17.6922 9.25 17 9.25V9.75ZM18.75 11C18.75 11.4023 18.5743 11.9233 18.2337 12.5114C17.8961 13.0941 17.4097 13.7198 16.8207 14.3258L17.1793 14.6742C17.7903 14.0456 18.3039 13.3876 18.6663 12.762C19.0257 12.1418 19.25 11.5301 19.25 11H18.75ZM12.1991 8.84886C12.0212 8.61438 11.6225 8.21911 11.0754 7.88126C10.5265 7.54227 9.81013 7.25 9.00002 7.25V7.75C9.68991 7.75 10.3156 7.99968 10.8127 8.30667C11.3117 8.6148 11.663 8.96952 11.8009 9.15114L12.1991 8.84886ZM9.00002 7.25C8.18942 7.25 7.60876 7.52336 7.23946 8.00279C6.87935 8.4703 6.75002 9.09587 6.75002 9.74691H7.25002C7.25002 9.14967 7.37069 8.65179 7.63557 8.30791C7.89128 7.97595 8.31062 7.75 9.00002 7.75V7.25ZM6.75002 9.74691C6.75002 10.5563 7.04146 11.3516 7.50008 12.1539C7.95845 12.9557 8.5949 13.7832 9.30605 14.6577L9.69399 14.3423C8.98408 13.4692 8.37053 12.6691 7.93416 11.9058C7.49806 11.1429 7.25002 10.4354 7.25002 9.74691H6.75002ZM7 9.25C6.30777 9.25 5.74564 9.39785 5.35116 9.7025C4.94714 10.0145 4.75 10.4672 4.75 11H5.25C5.25 10.6005 5.39149 10.3031 5.65678 10.0982C5.93162 9.88597 6.36948 9.75 7 9.75V9.25ZM4.75 11C4.75 11.5301 4.97434 12.1418 5.33368 12.762C5.69609 13.3876 6.20969 14.0456 6.82073 14.6742L7.17927 14.3258C6.59031 13.7198 6.10391 13.0941 5.76632 12.5114C5.42566 11.9233 5.25 11.4023 5.25 11H4.75ZM12.7 7.58751C12.7 7.97411 12.3866 8.28751 12 8.28751V8.78751C12.6628 8.78751 13.2 8.25025 13.2 7.58751H12.7ZM12 8.28751C11.6134 8.28751 11.3 7.97411 11.3 7.58751H10.8C10.8 8.25025 11.3373 8.78751 12 8.78751V8.28751ZM11.3 7.58751C11.3 7.2009 11.6134 6.88753 12 6.88753V6.38753C11.3372 6.38753 10.8 6.92478 10.8 7.58751H11.3ZM12 6.88753C12.3866 6.88753 12.7 7.20093 12.7 7.58751H13.2C13.2 6.92475 12.6627 6.38753 12 6.38753V6.88753Z"/>
</symbol>

<symbol id="logo-simple-micro" width="100%" height="100%" viewBox="0 0 24 24" fill="black">
<path d="M7.00005 16.25C6.86198 16.25 6.75005 16.3619 6.75005 16.5C6.75005 16.6381 6.86198 16.75 7.00005 16.75V16.25ZM17 16.75C17.1381 16.75 17.25 16.6381 17.25 16.5C17.25 16.3619 17.1381 16.25 17 16.25V16.75ZM7.00005 18.25C6.86198 18.25 6.75005 18.3619 6.75005 18.5C6.75005 18.6381 6.86198 18.75 7.00005 18.75V18.25ZM17 18.75C17.1381 18.75 17.25 18.6381 17.25 18.5C17.25 18.3619 17.1381 18.25 17 18.25V18.75ZM12.2501 3C12.2501 2.86193 12.1381 2.75 12.0001 2.75C11.862 2.75 11.7501 2.86193 11.7501 3H12.2501ZM11.7501 3.80707C11.7501 3.94514 11.862 4.05707 12.0001 4.05707C12.1381 4.05707 12.2501 3.94514 12.2501 3.80707H11.7501ZM12.2501 6.19293C12.2501 6.05486 12.1381 5.94293 12.0001 5.94293C11.862 5.94293 11.7501 6.05486 11.7501 6.19293H12.2501ZM11.7501 7C11.7501 7.13807 11.862 7.25 12.0001 7.25C12.1381 7.25 12.2501 7.13807 12.2501 7H11.7501ZM14 5.25C14.1381 5.25 14.25 5.13807 14.25 5C14.25 4.86193 14.1381 4.75 14 4.75V5.25ZM13.1929 4.75C13.0549 4.75 12.9429 4.86193 12.9429 5C12.9429 5.13807 13.0549 5.25 13.1929 5.25V4.75ZM10.8071 5.25C10.9451 5.25 11.0571 5.13807 11.0571 5C11.0571 4.86193 10.9451 4.75 10.8071 4.75V5.25ZM10.0001 4.75C9.86198 4.75 9.75005 4.86193 9.75005 5C9.75005 5.13807 9.86198 5.25 10.0001 5.25V4.75ZM11.7501 14.5C11.7501 14.6381 11.862 14.75 12.0001 14.75C12.1381 14.75 12.2501 14.6381 12.2501 14.5H11.7501ZM12.2501 8.57767C12.2501 8.4396 12.1381 8.32767 12.0001 8.32767C11.862 8.32767 11.7501 8.4396 11.7501 8.57767H12.2501ZM14.2073 14.3515C14.1253 14.4625 14.1488 14.6191 14.2599 14.7011C14.3709 14.7831 14.5275 14.7596 14.6095 14.6485L14.2073 14.3515ZM13 7.25C12.8619 7.25 12.75 7.36193 12.75 7.5C12.75 7.63807 12.8619 7.75 13 7.75V7.25ZM17.936 8.81689C17.7987 8.80239 17.6756 8.90194 17.6611 9.03925C17.6466 9.17655 17.7461 9.29962 17.8834 9.31413L17.936 8.81689ZM17.1509 14.2832C17.0615 14.3884 17.0743 14.5461 17.1795 14.6355C17.2848 14.7249 17.4425 14.7121 17.5319 14.6069L17.1509 14.2832ZM9.39058 14.6485C9.47262 14.7596 9.62915 14.7831 9.74021 14.7011C9.85127 14.6191 9.8748 14.4625 9.79276 14.3515L9.39058 14.6485ZM11 7.75C11.1381 7.75 11.25 7.63807 11.25 7.5C11.25 7.36193 11.1381 7.25 11 7.25V7.75ZM6.11665 9.31413C6.25396 9.29962 6.35351 9.17655 6.339 9.03925C6.3245 8.90194 6.20143 8.80239 6.06412 8.81689L6.11665 9.31413ZM6.46817 14.6069C6.55757 14.7121 6.71534 14.725 6.82056 14.6355C6.92578 14.5461 6.9386 14.3884 6.8492 14.2832L6.46817 14.6069ZM7.00005 16.75H17V16.25H7.00005V16.75ZM7.00005 18.75H17V18.25H7.00005V18.75ZM11.7501 3V3.80707H12.2501V3H11.7501ZM11.7501 6.19293V7H12.2501V6.19293H11.7501ZM14 4.75H13.1929V5.25H14V4.75ZM10.8071 4.75H10.0001V5.25H10.8071V4.75ZM12.2501 14.5V8.57767H11.7501V14.5H12.2501ZM14.4084 7.75C14.7821 7.75 15.2907 7.96261 15.7111 8.36755C16.1256 8.76678 16.4294 9.32971 16.4294 10H16.9294C16.9294 9.17029 16.5519 8.48322 16.058 8.00745C15.57 7.53739 14.9431 7.25 14.4084 7.25V7.75ZM16.4294 10C16.4294 10.6919 16.2044 11.3369 15.8103 12.0341C15.4134 12.7365 14.8574 13.4715 14.2073 14.3515L14.6095 14.6485C15.2504 13.781 15.8298 13.0159 16.2456 12.2802C16.6643 11.5393 16.9294 10.8081 16.9294 10H16.4294ZM14.4084 7.25H13V7.75H14.4084V7.25ZM17.8834 9.31413C18.1097 9.33803 18.3804 9.50754 18.5868 9.82867C18.7895 10.1441 18.9157 10.5871 18.8606 11.1087L19.3578 11.1612C19.4245 10.53 19.2735 9.9724 19.0074 9.55832C18.7449 9.14998 18.3549 8.86116 17.936 8.81689L17.8834 9.31413ZM18.8606 11.1087C18.7472 12.1814 18.2046 13.043 17.1509 14.2832L17.5319 14.6069C18.5959 13.3547 19.2276 12.3939 19.3578 11.1612L18.8606 11.1087ZM9.59167 7.25C9.05698 7.25 8.4301 7.53739 7.94211 8.00745C7.44818 8.48322 7.0707 9.17029 7.0707 10H7.5707C7.5707 9.32971 7.87452 8.76678 8.28898 8.36755C8.70938 7.96261 9.21798 7.75 9.59167 7.75V7.25ZM7.0707 10C7.0707 10.8081 7.33576 11.5393 7.75447 12.2802C8.17028 13.0159 8.74974 13.781 9.39058 14.6485L9.79276 14.3515C9.14274 13.4715 8.58672 12.7365 8.18976 12.0341C7.7957 11.3369 7.5707 10.6919 7.5707 10H7.0707ZM9.59167 7.75H11V7.25H9.59167V7.75ZM6.06412 8.81689C5.64515 8.86116 5.25517 9.14998 4.99271 9.55832C4.72656 9.97241 4.57562 10.53 4.6423 11.1612L5.13954 11.1087C5.08444 10.5871 5.21061 10.1441 5.41332 9.82867C5.61972 9.50754 5.89036 9.33803 6.11665 9.31413L6.06412 8.81689ZM4.6423 11.1612C4.77253 12.3939 5.4042 13.3547 6.46817 14.6069L6.8492 14.2832C5.79551 13.043 5.25287 12.1814 5.13954 11.1087L4.6423 11.1612Z"/>
</symbol>

</svg>
