<svg fill="none" version="1.1" viewBox="0 0 24 24" xmlns="http://www.w3.org/2000/svg">
<path d="m2 8h6v8h-6" stroke="hsl(186,100%,33%)" stroke-dasharray="1 1"/>
<path d="m17 7.5v1h1v-1zm2 0v1h1v-1zm2 0v1h1v-1zm-5.5 0.5v1h1v-1zm0 2v1h1v-1zm0 2v1h1v-1zm4.5 3.5v1h1v-1z" style="-inkscape-stroke:none;color:#000000;fill:#0098a8;stroke-dasharray:1, 1"/>
<path d="m9 15.5v1h1v-1zm2 0v1h1v-1zm-3.5 0.5v1h1v-1zm0 2v1h1v-1zm0 2v1h1v-1z" style="-inkscape-stroke:none;color:#000000;fill:#0098a8;stroke-dasharray:1, 1"/>
<path d="m8 2v6h8v-6" stroke="hsl(186,100%,33%)" stroke-dasharray="1 1"/>
<rect x="7.6668" y="7.6666" width=".66667" height=".66667" stroke="hsl(186,100%,33%)" stroke-width=".66667"/>
<rect x="7.6668" y="15.667" width=".66667" height=".66667" stroke="hsl(186,100%,33%)" stroke-width=".66667"/>
<rect x="15.667" y="7.6666" width=".66667" height=".66667" stroke="hsl(186,100%,33%)" stroke-width=".66667"/>
<path d="m13.114 10.688c-0.684 0-1.2473 0.5633-1.2473 1.2473v4.9113l-0.2727-0.2861-0.104-0.091c-0.2312-0.2302-0.5443-0.3595-0.8706-0.3595s-0.63932 0.1293-0.87057 0.3595c-0.23022 0.2312-0.35947 0.5443-0.35947 0.8706s0.12925 0.6393 0.35947 0.8706v0.0129l3.4042 3.3651 0.0258 0.0129 0.0129 0.0262c0.5983 0.4535 1.328 0.6997 2.0788 0.7013h0.7151c0.4473 1e-3 0.8903-0.0865 1.3037-0.2572 0.4135-0.1708 0.7891-0.4215 1.1053-0.7378 0.3163-0.3163 0.567-0.6919 0.7377-1.1054 0.1707-0.4134 0.258-0.8565 0.2571-1.3038v-3.2478c0-0.684-0.5638-1.2473-1.2473-1.2473-0.1771 0-0.3409 0.0486-0.4939 0.1168-0.1364-0.5405-0.6282-0.9483-1.2082-0.9483-0.3185 0-0.6108 0.1247-0.8315 0.3247-0.2273-0.2077-0.5237-0.3234-0.8315-0.3247-0.1421 0.0018-0.2828 0.0282-0.4158 0.0781v-1.7411c0-0.684-0.5633-1.2473-1.2472-1.2473zm0 0.8315c0.2307 0 0.4157 0.185 0.4157 0.4158v4.5733h0.8315v-1.6631c0-0.2307 0.185-0.4157 0.4158-0.4157 0.2307 0 0.4157 0.185 0.4157 0.4157v1.6631h0.8315v-1.6631c0-0.2307 0.185-0.4157 0.4158-0.4157 0.2307 0 0.4157 0.185 0.4157 0.4157v1.6631h0.8706v-0.8315c0-0.2308 0.185-0.4158 0.4158-0.4158 0.2303 0 0.4157 0.185 0.4157 0.4158v3.2483c0 1.4401-1.1321 2.5722-2.5726 2.5722h-0.7143c-0.6091 0-1.1354-0.2174-1.5724-0.5459l-3.3651-3.326c-0.185-0.185-0.185-0.3867 0-0.5717 0.1854-0.185 0.3866-0.185 0.5716 0l1.7932 1.7932v-6.9119c0-0.2308 0.185-0.4158 0.4158-0.4158z" fill="hsl(186,100%,33%)"/>
</svg>
