<svg width="24" height="24" viewBox="0 0 24 24" fill="none" xmlns="http://www.w3.org/2000/svg">
  <path d="M17.9999 11.8697C18.0022 12.774 17.791 13.6661 17.3832 14.4733C16.8998 15.4405 16.1567 16.2541 15.237 16.8229C14.3173 17.3916 13.2574 17.6931 12.1761 17.6935C11.2718 17.6959 10.3797 17.4846 9.57252 17.0769L5.53413 18.0923L6.96894 14.4733C6.56123 13.6661 6.34995 12.774 6.35231 11.8697C6.35272 10.7884 6.65419 9.72851 7.22294 8.80883C7.79169 7.88915 8.60526 7.14597 9.57252 6.66255C10.3797 6.25484 11.2718 6.04356 12.1761 6.04592H12.5187C13.9468 6.1247 15.2956 6.72748 16.307 7.73883C17.3183 8.75018 17.9211 10.099 17.9999 11.5271V11.8697Z" stroke="hsl(186,100%,33%)" stroke-linecap="round" stroke-linejoin="round"/>
  <g aria-label="English" style="fill:hsl(186,100%,33%);" transform="matrix(1,0,0,1.0502644,-0.1326623,-0.49066808)">
    <path d="m 8.8000081,13.017337 v -2.552243 h 1.8924199 v 0.431757 H 9.3153314 v 0.565811 h 1.2813446 v 0.430017 H 9.3153314 v 0.694641 h 1.4258436 v 0.430017 z"/>
    <path d="m 11.183378,13.017337 v -2.552243 h 0.501396 l 1.044574,1.704397 v -1.704397 h 0.478763 v 2.552243 h -0.517064 l -1.028905,-1.664355 v 1.664355 z"/>
    <path d="m 14.874033,12.078961 v -0.430016 h 1.11073 v 1.016719 q -0.161909,0.156686 -0.470058,0.276812 -0.306408,0.118385 -0.621522,0.118385 -0.40042,0 -0.698123,-0.167132 -0.297704,-0.168873 -0.447426,-0.480504 -0.149723,-0.313373 -0.149723,-0.680714 0,-0.39868 0.167132,-0.70857 0.167132,-0.30989 0.489209,-0.475281 0.245475,-0.12709 0.611076,-0.12709 0.475281,0 0.741648,0.20021 0.268107,0.198469 0.344709,0.550142 l -0.511841,0.09575 q -0.05397,-0.188023 -0.203692,-0.295963 -0.147981,-0.10968 -0.370824,-0.10968 -0.337746,0 -0.537956,0.214138 -0.198469,0.214137 -0.198469,0.635449 0,0.45439 0.201951,0.682455 0.201951,0.226325 0.529251,0.226325 0.161909,0 0.323818,-0.06268 0.16365,-0.06442 0.280294,-0.154945 v -0.323818 z"/>
  </g>
</svg>
