<svg width="24" height="24" viewBox="0 0 24 24" fill="none" xmlns="http://www.w3.org/2000/svg">
<path d="M12 8L12 18" stroke="hsl(171,70%,40%)"/>
<path d="M17.5294 6.93359L15 12" stroke="hsl(171,70%,40%)" stroke-linecap="round"/>
<path d="M6.52941 6.93359L4 12" stroke="hsl(171,70%,40%)" stroke-linecap="round"/>
<path d="M17.5293 6.93359L19.9999 12" stroke="hsl(171,70%,40%)" stroke-linecap="round"/>
<path d="M6.5293 6.93359L8.99989 12" stroke="hsl(171,70%,40%)" stroke-linecap="round"/>
<circle cx="12" cy="7" r="1" stroke="hsl(171,70%,40%)"/>
<path d="M13 7L17.5 7" stroke="hsl(171,70%,40%)"/>
<path d="M6.5 7L11 7" stroke="hsl(171,70%,40%)"/>
<path d="M20 12C20 13.1046 19.1046 14 18 14L17 14C15.8954 14 15 13.1046 15 12L20 12Z" stroke="hsl(171,70%,40%)"/>
<path d="M9 12C9 13.1046 8.10457 14 7 14L6 14C4.89543 14 4 13.1046 4 12L9 12Z" stroke="hsl(171,70%,40%)"/>
<path d="M7 18H17" stroke="hsl(171,70%,40%)"/>
</svg>
