<svg width="24" height="24" viewBox="0 0 24 24" fill="none" xmlns="http://www.w3.org/2000/svg">

<path d="M17.9999 11.8697C18.0022 12.774 17.791 13.6661 17.3832 14.4733C16.8998 15.4405 16.1567 16.2541 15.237 16.8229C14.3173 17.3916 13.2574 17.6931 12.1761 17.6935C11.2718 17.6959 10.3797 17.4846 9.57252 17.0769L5.53413 18.0923L6.96894 14.4733C6.56123 13.6661 6.34995 12.774 6.35231 11.8697C6.35272 10.7884 6.65419 9.72851 7.22294 8.80883C7.79169 7.88915 8.60526 7.14597 9.57252 6.66255C10.3797 6.25484 11.2718 6.04356 12.1761 6.04592H12.5187C13.9468 6.1247 15.2956 6.72748 16.307 7.73883C17.3183 8.75018 17.9211 10.099 17.9999 11.5271V11.8697Z" stroke="black" stroke-linecap="round" stroke-linejoin="round"/>
<path d="M13.3911 11.1087C13.4662 11.0044 13.5579 10.9192 13.6662 10.8532C13.7149 10.8234 13.7659 10.7979 13.8191 10.7769C13.7691 10.8038 13.7219 10.8355 13.6776 10.8719C13.6776 10.8719 13.6776 10.8719 13.6776 10.8719C13.603 10.9332 13.537 11.0077 13.4814 11.0943C13.446 11.1493 13.4162 11.2069 13.3911 11.2665V11.1087ZM14.8778 10.8828C14.8339 10.8448 14.7879 10.813 14.7406 10.7866C14.8258 10.8205 14.9011 10.8647 14.9664 10.9191C15.0172 10.9608 15.0618 11.0085 15.1003 11.0623H15.0314C15.0061 11.0223 14.9771 10.9835 14.9436 10.9469C14.9435 10.9468 14.9435 10.9467 14.9434 10.9467C14.9232 10.9246 14.9014 10.9032 14.8778 10.8828ZM10.7925 11.7086H10.8915H10.7925ZM11.283 11.6923V11.5597V11.7541V11.6923Z" stroke="black"/>
</svg>
