<svg width="80" height="80" viewBox="0 0 80 80" fill="none" xmlns="http://www.w3.org/2000/svg">
<path d="M39.9128 12.3636C43.3269 12.3636 46.0946 9.59594 46.0946 6.18182C46.0946 2.76769 43.3269 0 39.9128 0C36.4987 0 33.731 2.76769 33.731 6.18182C33.731 9.59594 36.4987 12.3636 39.9128 12.3636Z" fill="#0B97A6"/>
<path opacity="0.4" d="M39.9128 80C43.3269 80 46.0946 77.2323 46.0946 73.8182C46.0946 70.404 43.3269 67.6364 39.9128 67.6364C36.4987 67.6364 33.731 70.404 33.731 73.8182C33.731 77.2323 36.4987 80 39.9128 80Z" fill="#0B97A6"/>
<path opacity="0.7" d="M73.8182 46.0073C77.2323 46.0073 80 43.2396 80 39.8255C80 36.4114 77.2323 33.6437 73.8182 33.6437C70.404 33.6437 67.6364 36.4114 67.6364 39.8255C67.6364 43.2396 70.404 46.0073 73.8182 46.0073Z" fill="#0B97A6"/>
<path opacity="0.25" d="M6.18182 46.0073C9.59594 46.0073 12.3636 43.2396 12.3636 39.8255C12.3636 36.4114 9.59594 33.6437 6.18182 33.6437C2.76769 33.6437 0 36.4114 0 39.8255C0 43.2396 2.76769 46.0073 6.18182 46.0073Z" fill="#0B97A6"/>
<path opacity="0.85" d="M68.1891 20.3637C69.0558 19.5 69.6467 18.3985 69.887 17.1988C70.1272 15.9991 70.0061 14.755 69.5388 13.6242C69.0715 12.4934 68.2792 11.5266 67.2622 10.8464C66.2451 10.1662 65.0491 9.8031 63.8255 9.8031C62.6019 9.8031 61.4059 10.1662 60.3888 10.8464C59.3718 11.5266 58.5795 12.4934 58.1122 13.6242C57.6449 14.755 57.5238 15.9991 57.764 17.1988C58.0043 18.3985 58.5952 19.5 59.4619 20.3637C60.6206 21.5184 62.1897 22.1667 63.8255 22.1667C65.4613 22.1667 67.0304 21.5184 68.1891 20.3637Z" fill="#0B97A6"/>
<path opacity="0.3" d="M20.3637 68.1891C21.2304 67.3254 21.8213 66.224 22.0615 65.0242C22.3018 63.8245 22.1806 62.5804 21.7134 61.4496C21.2461 60.3188 20.4538 59.3521 19.4367 58.6718C18.4197 57.9916 17.2236 57.6285 16.0001 57.6285C14.7765 57.6285 13.5805 57.9916 12.5634 58.6718C11.5463 59.3521 10.754 60.3188 10.2868 61.4496C9.8195 62.5804 9.69833 63.8245 9.93859 65.0242C10.1789 66.224 10.7697 67.3254 11.6364 68.1891C12.7951 69.3438 14.3642 69.9922 16.0001 69.9922C17.6359 69.9922 19.205 69.3438 20.3637 68.1891Z" fill="#0B97A6"/>
<path opacity="0.55" d="M59.7236 68.1019C60.5873 68.9685 61.6887 69.5594 62.8885 69.7997C64.0882 70.0399 65.3323 69.9188 66.4631 69.4515C67.5939 68.9843 68.5606 68.1919 69.2409 67.1749C69.9211 66.1578 70.2842 64.9618 70.2842 63.7382C70.2842 62.5147 69.9211 61.3186 69.2409 60.3016C68.5606 59.2845 67.5939 58.4922 66.4631 58.0249C65.3323 57.5577 64.0882 57.4365 62.8885 57.6768C61.6887 57.917 60.5873 58.5079 59.7236 59.3746C58.5689 60.5333 57.9205 62.1024 57.9205 63.7382C57.9205 65.374 58.5689 66.9432 59.7236 68.1019Z" fill="#0B97A6"/>
<path opacity="0.2" d="M11.8981 20.2764C12.7618 21.1431 13.8633 21.734 15.063 21.9742C16.2628 22.2145 17.5068 22.0933 18.6376 21.6261C19.7685 21.1588 20.7352 20.3665 21.4154 19.3494C22.0956 18.3324 22.4587 17.1363 22.4587 15.9128C22.4587 14.6892 22.0956 13.4932 21.4154 12.4761C20.7352 11.4591 19.7685 10.6667 18.6376 10.1995C17.5068 9.73222 16.2628 9.61105 15.063 9.85131C13.8633 10.0916 12.7618 10.6825 11.8981 11.5491C10.7435 12.7078 10.0951 14.277 10.0951 15.9128C10.0951 17.5486 10.7435 19.1177 11.8981 20.2764Z" fill="#0B97A6"/>
<path d="M50.7928 34.9091C50.4291 32.3345 48.3346 31.2145 45.7019 31.2145C44.4829 31.1938 43.2764 31.463 42.1819 32C42.2674 31.4288 42.1291 30.8467 41.7957 30.3751C41.4624 29.9035 40.9597 29.5789 40.3928 29.4691V28.0145C40.3928 27.8949 40.3453 27.7802 40.2607 27.6957C40.1762 27.6111 40.0615 27.5636 39.9419 27.5636C39.8223 27.5636 39.7076 27.6111 39.623 27.6957C39.5385 27.7802 39.491 27.8949 39.491 28.0145V29.4691C38.9472 29.6072 38.4746 29.9431 38.1652 30.4111C37.8559 30.8791 37.7322 31.4456 37.8182 32C36.7515 31.4514 35.5704 31.1624 34.371 31.1563C31.7382 31.1563 29.6437 32.2763 29.2655 34.8509C28.7165 34.8405 28.1719 34.9518 27.6709 35.1766C27.1699 35.4014 26.7248 35.7343 26.3676 36.1513C26.0103 36.5684 25.7497 37.0592 25.6045 37.5888C25.4592 38.1184 25.4328 38.6736 25.5273 39.2145C25.6291 41.1781 28.1019 44.3636 29.6582 46.1672H30.851C28.9601 44.0581 26.4873 40.8145 26.4873 39.1709C26.4279 38.7204 26.4604 38.2626 26.5829 37.8251C26.7054 37.3876 26.9153 36.9795 27.2001 36.6254C27.7293 36.1646 28.3917 35.8844 29.091 35.8254C29.0691 36.0819 29.0691 36.3398 29.091 36.5963C29.3306 37.979 29.8237 39.3056 30.5455 40.5091C31.6756 42.511 32.9595 44.4222 34.3855 46.2254H35.5346C35.5346 46.2254 30.3419 39.84 30.0219 36.5381C30.0219 36.5381 29.2219 32.1745 34.2837 32.1745C36.2686 32.2388 38.1489 33.0798 39.5201 34.5163V46.2691H40.4219V34.4727C41.7975 33.034 43.6832 32.193 45.6728 32.1309C50.7201 32.1309 49.9346 36.4945 49.9346 36.4945C49.6001 39.7963 44.4219 46.1818 44.4219 46.1818H45.5564C47.0006 44.3946 48.3039 42.498 49.4546 40.5091C50.1764 39.3056 50.6695 37.979 50.9091 36.5963C50.9234 36.3396 50.9234 36.0822 50.9091 35.8254C51.332 35.8246 51.7495 35.9199 52.1302 36.104C52.5108 36.2881 52.8447 36.5563 53.1066 36.8882C53.3686 37.2202 53.5517 37.6073 53.6422 38.0204C53.7327 38.4334 53.7283 38.8616 53.6291 39.2727C53.6291 40.9163 51.0982 44.16 49.2655 46.2691H50.4728C52.0146 44.4654 54.5019 41.28 54.6037 39.3163C54.7041 38.7664 54.6799 38.2009 54.5328 37.6615C54.3858 37.1222 54.1196 36.6227 53.754 36.1998C53.3883 35.7769 52.9325 35.4414 52.42 35.2181C51.9075 34.9947 51.3515 34.8891 50.7928 34.9091ZM40.0001 33.1927C39.7124 33.1927 39.4312 33.1074 39.192 32.9476C38.9528 32.7877 38.7663 32.5606 38.6562 32.2948C38.5461 32.029 38.5173 31.7365 38.5735 31.4544C38.6296 31.1722 38.7681 30.913 38.9715 30.7096C39.175 30.5062 39.4341 30.3677 39.7163 30.3115C39.9984 30.2554 40.2909 30.2842 40.5567 30.3943C40.8225 30.5044 41.0496 30.6908 41.2095 30.93C41.3693 31.1692 41.4546 31.4505 41.4546 31.7381C41.4546 32.1239 41.3014 32.4939 41.0286 32.7667C40.7558 33.0394 40.3858 33.1927 40.0001 33.1927Z" fill="#1F1F1F"/>
<path d="M40 25.76C40.1196 25.76 40.2343 25.7125 40.3188 25.628C40.4034 25.5434 40.4509 25.4287 40.4509 25.3091V23.4909C40.4509 23.3714 40.4034 23.2567 40.3188 23.1721C40.2343 23.0875 40.1196 23.04 40 23.04C39.8804 23.04 39.7657 23.0875 39.6811 23.1721C39.5966 23.2567 39.5491 23.3714 39.5491 23.4909V25.3091C39.5491 25.3683 39.5607 25.427 39.5834 25.4817C39.6061 25.5364 39.6393 25.5861 39.6811 25.628C39.723 25.6698 39.7727 25.7031 39.8274 25.7257C39.8821 25.7484 39.9408 25.76 40 25.76Z" fill="#1F1F1F"/>
<path d="M36.8146 27.1273H38.6327C38.6932 27.1292 38.7534 27.119 38.8098 27.0972C38.8662 27.0754 38.9176 27.0425 38.961 27.0005C39.0044 26.9584 39.039 26.908 39.0625 26.8523C39.0861 26.7967 39.0982 26.7368 39.0982 26.6764C39.0982 26.6159 39.0861 26.5561 39.0625 26.5004C39.039 26.4447 39.0044 26.3943 38.961 26.3523C38.9176 26.3102 38.8662 26.2773 38.8098 26.2555C38.7534 26.2337 38.6932 26.2235 38.6327 26.2255H36.8146C36.695 26.2255 36.5803 26.273 36.4957 26.3575C36.4112 26.4421 36.3636 26.5568 36.3636 26.6764C36.3636 26.796 36.4112 26.9106 36.4957 26.9952C36.5803 27.0798 36.695 27.1273 36.8146 27.1273Z" fill="#1F1F1F"/>
<path d="M41.3673 27.1273H43.1855C43.3051 27.1273 43.4198 27.0798 43.5043 26.9952C43.5889 26.9107 43.6364 26.796 43.6364 26.6764C43.6364 26.5568 43.5889 26.4421 43.5043 26.3575C43.4198 26.273 43.3051 26.2255 43.1855 26.2255H41.3673C41.2477 26.2255 41.133 26.273 41.0485 26.3575C40.9639 26.4421 40.9164 26.5568 40.9164 26.6764C40.9164 26.796 40.9639 26.9107 41.0485 26.9952C41.133 27.0798 41.2477 27.1273 41.3673 27.1273Z" fill="#1F1F1F"/>
<path d="M50.4582 49.4109H29.5419V50.3127H50.4582V49.4109Z" fill="#1F1F1F"/>
<path d="M50.4582 51.2146H29.5419V52.1164H50.4582V51.2146Z" fill="#1F1F1F"/>
<path d="M29.5419 47.5928V48.0437V48.4946H50.4582V48.0437V47.5928H29.5419Z" fill="#1F1F1F"/>
</svg>
