<svg width="24" height="24" viewBox="0 0 24 24" fill="none" xmlns="http://www.w3.org/2000/svg">
<path d="M11.75 14.5C11.75 14.6381 11.8619 14.75 12 14.75C12.1381 14.75 12.25 14.6381 12.25 14.5H11.75ZM7 15.75C6.86193 15.75 6.75 15.8619 6.75 16C6.75 16.1381 6.86193 16.25 7 16.25V15.75ZM17 16.25C17.1381 16.25 17.25 16.1381 17.25 16C17.25 15.8619 17.1381 15.75 17 15.75V16.25ZM7 16.75C6.86193 16.75 6.75 16.8619 6.75 17C6.75 17.1381 6.86193 17.25 7 17.25V16.75ZM17 17.25C17.1381 17.25 17.25 17.1381 17.25 17C17.25 16.8619 17.1381 16.75 17 16.75V17.25ZM7 17.75C6.86193 17.75 6.75 17.8619 6.75 18C6.75 18.1381 6.86193 18.25 7 18.25V17.75ZM17 18.25C17.1381 18.25 17.25 18.1381 17.25 18C17.25 17.8619 17.1381 17.75 17 17.75V18.25ZM12.25 3.36246C12.25 3.22439 12.1381 3.11246 12 3.11246C11.8619 3.11246 11.75 3.22439 11.75 3.36246H12.25ZM11.75 4.18123C11.75 4.3193 11.8619 4.43123 12 4.43123C12.1381 4.43123 12.25 4.3193 12.25 4.18123H11.75ZM12.25 5.81876C12.25 5.68068 12.1381 5.56876 12 5.56876C11.8619 5.56876 11.75 5.68068 11.75 5.81876H12.25ZM13.6376 5.25C13.7756 5.25 13.8876 5.13807 13.8876 5C13.8876 4.86193 13.7756 4.75 13.6376 4.75V5.25ZM12.8188 4.75C12.6807 4.75 12.5688 4.86193 12.5688 5C12.5688 5.13807 12.6807 5.25 12.8188 5.25V4.75ZM11.1812 5.25C11.3193 5.25 11.4312 5.13807 11.4312 5C11.4312 4.86193 11.3193 4.75 11.1812 4.75V5.25ZM10.3624 4.75C10.2244 4.75 10.1124 4.86193 10.1124 5C10.1124 5.13807 10.2244 5.25 10.3624 5.25V4.75ZM14.306 14.3423C14.2189 14.4494 14.2351 14.6069 14.3423 14.694C14.4494 14.7811 14.6068 14.7648 14.6939 14.6577L14.306 14.3423ZM17 9.25C16.8619 9.25 16.75 9.36193 16.75 9.5C16.75 9.63807 16.8619 9.75 17 9.75V9.25ZM16.8207 14.3258C16.7245 14.4248 16.7267 14.583 16.8258 14.6793C16.9248 14.7755 17.083 14.7733 17.1793 14.6742L16.8207 14.3258ZM9.30605 14.6577C9.39316 14.7648 9.55062 14.7811 9.65774 14.694C9.76487 14.6069 9.78109 14.4494 9.69399 14.3423L9.30605 14.6577ZM7 9.75C7.13807 9.75 7.25 9.63807 7.25 9.5C7.25 9.36193 7.13807 9.25 7 9.25V9.75ZM6.82073 14.6742C6.91697 14.7733 7.07524 14.7755 7.17425 14.6793C7.27326 14.583 7.2755 14.4248 7.17927 14.3258L6.82073 14.6742ZM12.25 14.5V9H11.75V14.5H12.25ZM7 16.25H17V15.75H7V16.25ZM7 17.25H17V16.75H7V17.25ZM7 18.25H17V17.75H7V18.25ZM11.75 3.36246V4.18123H12.25V3.36246H11.75ZM11.75 5.81876V6.63753H12.25V5.81876H11.75ZM13.6376 4.75H12.8188V5.25H13.6376V4.75ZM11.1812 4.75H10.3624V5.25H11.1812V4.75ZM12.1991 9.15114C12.337 8.96952 12.6883 8.6148 13.1873 8.30667C13.6844 7.99968 14.3101 7.75 15 7.75V7.25C14.1899 7.25 13.4735 7.54227 12.9246 7.88126C12.3775 8.21911 11.9788 8.61438 11.8009 8.84886L12.1991 9.15114ZM15 7.75C15.6894 7.75 16.1087 7.97595 16.3644 8.30791C16.6293 8.65179 16.75 9.14967 16.75 9.74691H17.25C17.25 9.09587 17.1207 8.4703 16.7605 8.00279C16.3912 7.52336 15.8106 7.25 15 7.25V7.75ZM16.75 9.74691C16.75 10.4354 16.5019 11.1429 16.0658 11.9058C15.6295 12.6691 15.0159 13.4692 14.306 14.3423L14.6939 14.6577C15.4051 13.7832 16.0415 12.9557 16.4999 12.1539C16.9585 11.3516 17.25 10.5563 17.25 9.74691H16.75ZM17 9.75C17.6305 9.75 18.0684 9.88597 18.3432 10.0982C18.6085 10.3031 18.75 10.6005 18.75 11H19.25C19.25 10.4672 19.0529 10.0145 18.6488 9.7025C18.2544 9.39785 17.6922 9.25 17 9.25V9.75ZM18.75 11C18.75 11.4023 18.5743 11.9233 18.2337 12.5114C17.8961 13.0941 17.4097 13.7198 16.8207 14.3258L17.1793 14.6742C17.7903 14.0456 18.3039 13.3876 18.6663 12.762C19.0257 12.1418 19.25 11.5301 19.25 11H18.75ZM12.1991 8.84886C12.0212 8.61438 11.6225 8.21911 11.0754 7.88126C10.5265 7.54227 9.81013 7.25 9.00002 7.25V7.75C9.68991 7.75 10.3156 7.99968 10.8127 8.30667C11.3117 8.6148 11.663 8.96952 11.8009 9.15114L12.1991 8.84886ZM9.00002 7.25C8.18942 7.25 7.60876 7.52336 7.23946 8.00279C6.87935 8.4703 6.75002 9.09587 6.75002 9.74691H7.25002C7.25002 9.14967 7.37069 8.65179 7.63557 8.30791C7.89128 7.97595 8.31062 7.75 9.00002 7.75V7.25ZM6.75002 9.74691C6.75002 10.5563 7.04146 11.3516 7.50008 12.1539C7.95845 12.9557 8.5949 13.7832 9.30605 14.6577L9.69399 14.3423C8.98408 13.4692 8.37053 12.6691 7.93416 11.9058C7.49806 11.1429 7.25002 10.4354 7.25002 9.74691H6.75002ZM7 9.25C6.30777 9.25 5.74564 9.39785 5.35116 9.7025C4.94714 10.0145 4.75 10.4672 4.75 11H5.25C5.25 10.6005 5.39149 10.3031 5.65678 10.0982C5.93162 9.88597 6.36948 9.75 7 9.75V9.25ZM4.75 11C4.75 11.5301 4.97434 12.1418 5.33368 12.762C5.69609 13.3876 6.20969 14.0456 6.82073 14.6742L7.17927 14.3258C6.59031 13.7198 6.10391 13.0941 5.76632 12.5114C5.42566 11.9233 5.25 11.4023 5.25 11H4.75ZM12.7 7.58751C12.7 7.97411 12.3866 8.28751 12 8.28751V8.78751C12.6628 8.78751 13.2 8.25025 13.2 7.58751H12.7ZM12 8.28751C11.6134 8.28751 11.3 7.97411 11.3 7.58751H10.8C10.8 8.25025 11.3373 8.78751 12 8.78751V8.28751ZM11.3 7.58751C11.3 7.2009 11.6134 6.88753 12 6.88753V6.38753C11.3372 6.38753 10.8 6.92478 10.8 7.58751H11.3ZM12 6.88753C12.3866 6.88753 12.7 7.20093 12.7 7.58751H13.2C13.2 6.92475 12.6627 6.38753 12 6.38753V6.88753Z" fill="#0097A7"/>
</svg>
